<?xml version="1.0" encoding="UTF-8" standalone="no"?>
<!-- Created with Inkscape (http://www.inkscape.org/) -->

<svg
   width="32"
   height="32"
   viewBox="0 0 32 32"
   version="1.1"
   id="svg2486"
   inkscape:version="1.2.1 (9c6d41e410, 2022-07-14)"
   sodipodi:docname="favicon-araras32px.svg"
   xmlns:inkscape="http://www.inkscape.org/namespaces/inkscape"
   xmlns:sodipodi="http://sodipodi.sourceforge.net/DTD/sodipodi-0.dtd"
   xmlns:xlink="http://www.w3.org/1999/xlink"
   xmlns="http://www.w3.org/2000/svg"
   xmlns:svg="http://www.w3.org/2000/svg">
  <sodipodi:namedview
     id="namedview2488"
     pagecolor="#ffffff"
     bordercolor="#000000"
     borderopacity="0.25"
     inkscape:showpageshadow="2"
     inkscape:pageopacity="0.0"
     inkscape:pagecheckerboard="0"
     inkscape:deskcolor="#d1d1d1"
     inkscape:document-units="mm"
     showgrid="false"
     inkscape:zoom="11.930303"
     inkscape:cx="23.343917"
     inkscape:cy="26.403353"
     inkscape:window-width="1920"
     inkscape:window-height="1017"
     inkscape:window-x="-8"
     inkscape:window-y="-8"
     inkscape:window-maximized="1"
     inkscape:current-layer="g2234" />
  <defs
     id="defs2483">
    <linearGradient
       inkscape:collect="always"
       xlink:href="#linearGradient18921"
       id="linearGradient2262"
       gradientUnits="userSpaceOnUse"
       x1="67.740143"
       y1="83.686745"
       x2="92.516396"
       y2="83.376778" />
    <linearGradient
       inkscape:collect="always"
       id="linearGradient18921">
      <stop
         style="stop-color:#585bd3;stop-opacity:1;"
         offset="0"
         id="stop18917" />
      <stop
         style="stop-color:#585bd3;stop-opacity:0;"
         offset="1"
         id="stop18919" />
    </linearGradient>
    <linearGradient
       inkscape:collect="always"
       xlink:href="#linearGradient18921"
       id="linearGradient2258"
       gradientUnits="userSpaceOnUse"
       x1="67.740143"
       y1="83.686745"
       x2="99.592918"
       y2="80.451141" />
    <linearGradient
       inkscape:collect="always"
       xlink:href="#linearGradient18921"
       id="linearGradient2270"
       gradientUnits="userSpaceOnUse"
       x1="72.690155"
       y1="86.808968"
       x2="58.459202"
       y2="84.219078" />
    <linearGradient
       inkscape:collect="always"
       xlink:href="#linearGradient18921"
       id="linearGradient2266"
       gradientUnits="userSpaceOnUse"
       x1="67.305191"
       y1="85.854164"
       x2="59.86858"
       y2="90.266861" />
    <linearGradient
       inkscape:collect="always"
       xlink:href="#linearGradient1797"
       id="linearGradient2272"
       gradientUnits="userSpaceOnUse"
       gradientTransform="matrix(0.92535318,0,0,0.92535318,-20.274827,8.5622115)"
       x1="62.225395"
       y1="113.13708"
       x2="68.589355"
       y2="97.315567" />
    <linearGradient
       inkscape:collect="always"
       id="linearGradient1797">
      <stop
         style="stop-color:#eab625;stop-opacity:1;"
         offset="0"
         id="stop1793" />
      <stop
         style="stop-color:#f5db00;stop-opacity:1;"
         offset="1"
         id="stop1795" />
    </linearGradient>
    <pattern
       inkscape:collect="always"
       xlink:href="#pattern10284"
       id="pattern2314"
       patternTransform="matrix(8.7645823,3.5020421e-8,-4.3257642e-8,8.5853354,83.744579,-115.72807)" />
    <pattern
       inkscape:collect="always"
       xlink:href="#pattern21758"
       id="pattern10284"
       patternTransform="matrix(8.7645823,3.5020421e-8,-4.3257642e-8,8.5853354,80.533617,-106.91773)" />
    <pattern
       inkscape:collect="always"
       xlink:href="#Polkadots-medwhite"
       id="pattern21758"
       patternTransform="matrix(8.7645823,3.5020421e-8,-4.3257642e-8,8.5853354,85.302099,-133.63857)" />
    <pattern
       inkscape:collect="always"
       patternUnits="userSpaceOnUse"
       width="10"
       height="10"
       patternTransform="translate(0,0) scale(10,10)"
       id="Polkadots-medwhite"
       inkscape:stockid="Polka dots, medium white">
      <circle
         style="fill:white;stroke:none"
         cx="2.567"
         cy="0.810"
         r="0.15"
         id="circle20354" />
      <circle
         style="fill:white;stroke:none"
         cx="3.048"
         cy="2.33"
         r="0.15"
         id="circle20356" />
      <circle
         style="fill:white;stroke:none"
         cx="4.418"
         cy="2.415"
         r="0.15"
         id="circle20358" />
      <circle
         style="fill:white;stroke:none"
         cx="1.844"
         cy="3.029"
         r="0.15"
         id="circle20360" />
      <circle
         style="fill:white;stroke:none"
         cx="6.08"
         cy="1.363"
         r="0.15"
         id="circle20362" />
      <circle
         style="fill:white;stroke:none"
         cx="5.819"
         cy="4.413"
         r="0.15"
         id="circle20364" />
      <circle
         style="fill:white;stroke:none"
         cx="4.305"
         cy="4.048"
         r="0.15"
         id="circle20366" />
      <circle
         style="fill:white;stroke:none"
         cx="5.541"
         cy="3.045"
         r="0.15"
         id="circle20368" />
      <circle
         style="fill:white;stroke:none"
         cx="4.785"
         cy="5.527"
         r="0.15"
         id="circle20370" />
      <circle
         style="fill:white;stroke:none"
         cx="2.667"
         cy="5.184"
         r="0.15"
         id="circle20372" />
      <circle
         style="fill:white;stroke:none"
         cx="7.965"
         cy="1.448"
         r="0.15"
         id="circle20374" />
      <circle
         style="fill:white;stroke:none"
         cx="7.047"
         cy="5.049"
         r="0.15"
         id="circle20376" />
      <circle
         style="fill:white;stroke:none"
         cx="4.340"
         cy="0.895"
         r="0.15"
         id="circle20378" />
      <circle
         style="fill:white;stroke:none"
         cx="7.125"
         cy="0.340"
         r="0.15"
         id="circle20380" />
      <circle
         style="fill:white;stroke:none"
         cx="9.550"
         cy="1.049"
         r="0.15"
         id="circle20382" />
      <circle
         style="fill:white;stroke:none"
         cx="7.006"
         cy="2.689"
         r="0.15"
         id="circle20384" />
      <circle
         style="fill:white;stroke:none"
         cx="8.909"
         cy="2.689"
         r="0.15"
         id="circle20386" />
      <circle
         style="fill:white;stroke:none"
         cx="9.315"
         cy="4.407"
         r="0.15"
         id="circle20388" />
      <circle
         style="fill:white;stroke:none"
         cx="7.820"
         cy="3.870"
         r="0.15"
         id="circle20390" />
      <circle
         style="fill:white;stroke:none"
         cx="8.270"
         cy="5.948"
         r="0.15"
         id="circle20392" />
      <circle
         style="fill:white;stroke:none"
         cx="7.973"
         cy="7.428"
         r="0.15"
         id="circle20394" />
      <circle
         style="fill:white;stroke:none"
         cx="9.342"
         cy="8.072"
         r="0.15"
         id="circle20396" />
      <circle
         style="fill:white;stroke:none"
         cx="8.206"
         cy="9.315"
         r="0.15"
         id="circle20398" />
      <circle
         style="fill:white;stroke:none"
         cx="9.682"
         cy="9.475"
         r="0.15"
         id="circle20400" />
      <circle
         style="fill:white;stroke:none"
         cx="9.688"
         cy="6.186"
         r="0.15"
         id="circle20402" />
      <circle
         style="fill:white;stroke:none"
         cx="3.379"
         cy="6.296"
         r="0.15"
         id="circle20404" />
      <circle
         style="fill:white;stroke:none"
         cx="2.871"
         cy="8.204"
         r="0.15"
         id="circle20406" />
      <circle
         style="fill:white;stroke:none"
         cx="4.59"
         cy="8.719"
         r="0.15"
         id="circle20408" />
      <circle
         style="fill:white;stroke:none"
         cx="3.181"
         cy="9.671"
         r="0.15"
         id="circle20410" />
      <circle
         style="fill:white;stroke:none"
         cx="5.734"
         cy="7.315"
         r="0.15"
         id="circle20412" />
      <circle
         style="fill:white;stroke:none"
         cx="6.707"
         cy="6.513"
         r="0.15"
         id="circle20414" />
      <circle
         style="fill:white;stroke:none"
         cx="5.730"
         cy="9.670"
         r="0.15"
         id="circle20416" />
      <circle
         style="fill:white;stroke:none"
         cx="6.535"
         cy="8.373"
         r="0.15"
         id="circle20418" />
      <circle
         style="fill:white;stroke:none"
         cx="4.37"
         cy="7.154"
         r="0.15"
         id="circle20420" />
      <circle
         style="fill:white;stroke:none"
         cx="0.622"
         cy="7.25"
         r="0.15"
         id="circle20422" />
      <circle
         style="fill:white;stroke:none"
         cx="0.831"
         cy="5.679"
         r="0.15"
         id="circle20424" />
      <circle
         style="fill:white;stroke:none"
         cx="1.257"
         cy="8.519"
         r="0.15"
         id="circle20426" />
      <circle
         style="fill:white;stroke:none"
         cx="1.989"
         cy="6.877"
         r="0.15"
         id="circle20428" />
      <circle
         style="fill:white;stroke:none"
         cx="0.374"
         cy="3.181"
         r="0.15"
         id="circle20430" />
      <circle
         style="fill:white;stroke:none"
         cx="1.166"
         cy="1.664"
         r="0.15"
         id="circle20432" />
      <circle
         style="fill:white;stroke:none"
         cx="1.151"
         cy="0.093"
         r="0.15"
         id="circle20434" />
      <circle
         style="fill:white;stroke:none"
         cx="1.151"
         cy="10.093"
         r="0.15"
         id="circle20436" />
      <circle
         style="fill:white;stroke:none"
         cx="1.302"
         cy="4.451"
         r="0.15"
         id="circle20438" />
      <circle
         style="fill:white;stroke:none"
         cx="3.047"
         cy="3.763"
         r="0.15"
         id="circle20440" />
    </pattern>
    <inkscape:path-effect
       effect="fillet_chamfer"
       id="path-effect2238"
       is_visible="true"
       lpeversion="1"
       nodesatellites_param="F,0,0,1,0,0.65783621,0,1 @ F,0,0,1,0,0.90533707,0,1 @ F,0,0,1,0,0.44805492,0,1 @ F,0,0,1,0,1.7647011,0,1 @ F,0,0,1,0,0.60755355,0,1 @ F,0,0,1,0,2.2121771,0,1 @ F,0,0,1,0,0.76806105,0,1 @ F,0,0,1,0,1.4149327,0,1 @ F,0,0,1,0,0.84140198,0,1 @ F,0,0,1,0,0.45372043,0,1 @ F,0,0,1,0,1.3976756,0,1 @ F,0,0,1,0,0.60927495,0,1"
       unit="px"
       method="auto"
       mode="F"
       radius="0"
       chamfer_steps="1"
       flexible="false"
       use_knot_distance="true"
       apply_no_radius="true"
       apply_with_radius="true"
       only_selected="false"
       hide_knots="false" />
    <linearGradient
       inkscape:collect="always"
       xlink:href="#linearGradient10028"
       id="linearGradient2274"
       gradientUnits="userSpaceOnUse"
       gradientTransform="matrix(0.92535318,0,0,0.93949746,-21.217633,7.5540991)"
       x1="75.787895"
       y1="94.013031"
       x2="47.680397"
       y2="121.85535" />
    <linearGradient
       inkscape:collect="always"
       id="linearGradient10028">
      <stop
         style="stop-color:#4955f0;stop-opacity:1;"
         offset="0"
         id="stop10024" />
      <stop
         style="stop-color:#756fe5;stop-opacity:1;"
         offset="1"
         id="stop10026" />
    </linearGradient>
    <inkscape:path-effect
       effect="fillet_chamfer"
       id="path-effect2242"
       is_visible="true"
       lpeversion="1"
       nodesatellites_param="F,0,0,1,0,0.13748018,0,1 @ F,0,0,1,0,4.8403115,0,1 @ F,0,0,1,0,4.2671152,0,1 @ F,0,0,1,0,5.4321948,0,1 @ F,0,0,1,0,2.5125795,0,1 @ F,0,0,1,0,2.5125795,0,1 @ F,0,0,1,0,5.0485958,0,1 @ F,0,0,1,0,1.6746053,0,1 @ F,0,0,1,0,0,0,1 @ F,0,0,1,0,1.8132244,0,1 @ F,0,0,1,0,3.592308,0,1 @ F,0,0,1,0,3.7408225,0,1 @ F,0,0,1,0,2.8312088,0,1 @ F,0,0,1,0,0,0,1 @ F,0,0,1,0,0.80405134,0,1 @ F,0,0,1,0,0.59037648,0,1 @ F,0,0,1,0,0,0,1"
       unit="px"
       method="auto"
       mode="F"
       radius="0"
       chamfer_steps="1"
       flexible="false"
       use_knot_distance="true"
       apply_no_radius="true"
       apply_with_radius="true"
       only_selected="false"
       hide_knots="false" />
    <pattern
       inkscape:collect="always"
       xlink:href="#pattern10376"
       id="pattern2316"
       patternTransform="matrix(8.7645823,3.5020421e-8,-4.3257642e-8,8.5853354,81.047837,-113.72122)" />
    <pattern
       inkscape:collect="always"
       xlink:href="#pattern21758"
       id="pattern10376"
       patternTransform="matrix(8.7645823,3.5020421e-8,-4.3257642e-8,8.5853354,77.836875,-104.91088)" />
    <pattern
       inkscape:collect="always"
       xlink:href="#Polkadots-medwhite"
       id="pattern2233"
       patternTransform="matrix(8.7645823,3.5020421e-8,-4.3257642e-8,8.5853354,85.302099,-133.63857)" />
    <linearGradient
       inkscape:collect="always"
       xlink:href="#linearGradient4192"
       id="linearGradient2278"
       gradientUnits="userSpaceOnUse"
       gradientTransform="matrix(0.62350725,-0.16667792,0.16667792,0.62350725,-28.371933,29.378665)"
       x1="74.125"
       y1="129.375"
       x2="50.375"
       y2="145" />
    <linearGradient
       inkscape:collect="always"
       id="linearGradient4192">
      <stop
         style="stop-color:#6e707e;stop-opacity:1;"
         offset="0"
         id="stop4188" />
      <stop
         style="stop-color:#393939;stop-opacity:1;"
         offset="1"
         id="stop4190" />
    </linearGradient>
    <inkscape:path-effect
       effect="fillet_chamfer"
       id="path-effect2246"
       is_visible="true"
       lpeversion="1"
       nodesatellites_param="F,0,0,1,0,4.9925278,0,1 @ F,0,0,1,0,2.3059553,0,1 @ F,0,0,1,0,5.9878009,0,1 @ F,0,0,1,0,0.36399066,0,1 @ F,0,0,1,0,3.0166012,0,1 @ F,0,0,1,0,5.8114023,0,1"
       unit="px"
       method="auto"
       mode="F"
       radius="0"
       chamfer_steps="1"
       flexible="false"
       use_knot_distance="true"
       apply_no_radius="true"
       apply_with_radius="true"
       only_selected="false"
       hide_knots="false" />
    <linearGradient
       inkscape:collect="always"
       xlink:href="#linearGradient4192"
       id="linearGradient2280"
       gradientUnits="userSpaceOnUse"
       gradientTransform="matrix(0.3499558,-0.09289223,-0.12559915,-0.30384271,32.011069,158.95399)"
       x1="74.125"
       y1="129.375"
       x2="50.375"
       y2="145" />
    <inkscape:path-effect
       effect="fillet_chamfer"
       id="path-effect2250"
       is_visible="true"
       lpeversion="1"
       nodesatellites_param="F,0,0,1,0,0.69791203,0,1 @ F,0,0,1,0,0.66300308,0,1 @ F,0,0,1,0,2.8854053,0,1 @ F,0,0,1,0,0.88274796,0,1 @ F,0,0,1,0,2.2277258,0,1 @ F,0,0,1,0,1.1122327,0,1 @ F,0,0,1,0,1.1122327,0,1"
       unit="px"
       method="auto"
       mode="F"
       radius="0"
       chamfer_steps="1"
       flexible="false"
       use_knot_distance="true"
       apply_no_radius="true"
       apply_with_radius="true"
       only_selected="false"
       hide_knots="false" />
    <linearGradient
       inkscape:collect="always"
       xlink:href="#linearGradient10040"
       id="linearGradient2276"
       gradientUnits="userSpaceOnUse"
       gradientTransform="matrix(2.2856811,-0.38965158,1.601679,1.5135476,-261.85712,16.92145)"
       x1="72.471169"
       y1="89.651581"
       x2="65.859871"
       y2="89.160118" />
    <linearGradient
       inkscape:collect="always"
       id="linearGradient10040">
      <stop
         style="stop-color:#4955f0;stop-opacity:1"
         offset="0"
         id="stop10036" />
      <stop
         style="stop-color:#7b75e7;stop-opacity:1;"
         offset="1"
         id="stop10038" />
    </linearGradient>
    <linearGradient
       inkscape:collect="always"
       xlink:href="#linearGradient18921"
       id="linearGradient2379"
       gradientUnits="userSpaceOnUse"
       gradientTransform="matrix(-0.07406755,1.1656248,1.3642615,0.00556385,-91.332042,15.260708)"
       x1="72.690155"
       y1="86.808968"
       x2="58.459202"
       y2="84.219078" />
    <linearGradient
       inkscape:collect="always"
       xlink:href="#linearGradient18921"
       id="linearGradient3176"
       gradientUnits="userSpaceOnUse"
       x1="67.740143"
       y1="83.686745"
       x2="92.516396"
       y2="83.376778" />
    <linearGradient
       inkscape:collect="always"
       xlink:href="#linearGradient18921"
       id="linearGradient3178"
       gradientUnits="userSpaceOnUse"
       x1="67.740143"
       y1="83.686745"
       x2="92.516396"
       y2="83.376778" />
    <linearGradient
       inkscape:collect="always"
       xlink:href="#linearGradient18921"
       id="linearGradient3180"
       gradientUnits="userSpaceOnUse"
       x1="72.690155"
       y1="86.808968"
       x2="58.459202"
       y2="84.219078" />
    <linearGradient
       inkscape:collect="always"
       xlink:href="#linearGradient18921"
       id="linearGradient3182"
       gradientUnits="userSpaceOnUse"
       x1="67.305191"
       y1="85.854164"
       x2="59.86858"
       y2="90.266861" />
    <linearGradient
       inkscape:collect="always"
       xlink:href="#linearGradient18921"
       id="linearGradient3184"
       gradientUnits="userSpaceOnUse"
       x1="72.690155"
       y1="86.808968"
       x2="58.459202"
       y2="84.219078" />
    <linearGradient
       inkscape:collect="always"
       xlink:href="#linearGradient18921"
       id="linearGradient3186"
       gradientUnits="userSpaceOnUse"
       x1="72.690155"
       y1="86.808968"
       x2="58.459202"
       y2="84.219078" />
    <linearGradient
       inkscape:collect="always"
       xlink:href="#linearGradient18921"
       id="linearGradient3188"
       gradientUnits="userSpaceOnUse"
       x1="72.690155"
       y1="86.808968"
       x2="58.459202"
       y2="84.219078" />
    <linearGradient
       inkscape:collect="always"
       xlink:href="#linearGradient18921"
       id="linearGradient3190"
       gradientUnits="userSpaceOnUse"
       x1="67.305191"
       y1="85.854164"
       x2="59.86858"
       y2="90.266861" />
    <linearGradient
       inkscape:collect="always"
       xlink:href="#linearGradient18921"
       id="linearGradient3192"
       gradientUnits="userSpaceOnUse"
       x1="72.690155"
       y1="86.808968"
       x2="58.459202"
       y2="84.219078" />
    <linearGradient
       inkscape:collect="always"
       xlink:href="#linearGradient18921"
       id="linearGradient3194"
       gradientUnits="userSpaceOnUse"
       x1="72.690155"
       y1="86.808968"
       x2="58.459202"
       y2="84.219078" />
    <linearGradient
       inkscape:collect="always"
       xlink:href="#linearGradient18921"
       id="linearGradient3196"
       gradientUnits="userSpaceOnUse"
       x1="72.690155"
       y1="86.808968"
       x2="58.459202"
       y2="84.219078" />
    <linearGradient
       inkscape:collect="always"
       xlink:href="#linearGradient18921"
       id="linearGradient3198"
       gradientUnits="userSpaceOnUse"
       x1="67.305191"
       y1="85.854164"
       x2="59.86858"
       y2="90.266861" />
    <linearGradient
       inkscape:collect="always"
       xlink:href="#linearGradient18921"
       id="linearGradient3200"
       gradientUnits="userSpaceOnUse"
       x1="72.690155"
       y1="86.808968"
       x2="58.459202"
       y2="84.219078" />
    <linearGradient
       inkscape:collect="always"
       xlink:href="#linearGradient18921"
       id="linearGradient3202"
       gradientUnits="userSpaceOnUse"
       x1="72.690155"
       y1="86.808968"
       x2="58.459202"
       y2="84.219078" />
    <linearGradient
       inkscape:collect="always"
       xlink:href="#linearGradient18921"
       id="linearGradient3204"
       gradientUnits="userSpaceOnUse"
       x1="72.690155"
       y1="86.808968"
       x2="58.459202"
       y2="84.219078" />
    <linearGradient
       inkscape:collect="always"
       xlink:href="#linearGradient18921"
       id="linearGradient3206"
       gradientUnits="userSpaceOnUse"
       x1="72.690155"
       y1="86.808968"
       x2="58.459202"
       y2="84.219078" />
  </defs>
  <g
     inkscape:label="Camada 1"
     inkscape:groupmode="layer"
     id="layer1">
    <g
       id="g2234"
       transform="matrix(2.9021001,0,0,2.9021001,-47.856129,-253.68806)">
      <g
         id="g4536"
         transform="matrix(0.25103018,0,0,0.25103018,12.325599,65.60131)">
        <g
           id="g2226">
          <g
             id="g2156"
             transform="matrix(0.56434778,0.07803545,-0.07803545,0.56434778,21.079879,38.448684)"
             style="fill:url(#linearGradient2262);fill-opacity:1">
            <g
               id="g2154"
               style="fill:url(#linearGradient3178);fill-opacity:1">
              <path
                 id="path2150"
                 style="fill:url(#linearGradient3176);fill-opacity:1;stroke-width:23.9397"
                 d="m 70.862387,85.515796 a 2.7181205,4.2934904 51.052394 0 1 0.03848,0.07066 2.7181205,4.2934904 51.052394 0 1 0.05288,0.119651 2.7181205,4.2934904 51.052394 0 1 0.04629,0.125952 2.7181205,4.2934904 51.052394 0 1 0.03788,0.128576 2.7181205,4.2934904 51.052394 0 1 0.02841,0.135746 2.7181205,4.2934904 51.052394 0 1 0.0228,0.137485 2.7181205,4.2934904 51.052394 0 1 0.01327,0.144497 2.7181205,4.2934904 51.052394 0 1 0.002,0.147991 2.7181205,4.2934904 51.052394 0 1 -0.0055,0.146099 2.7181205,4.2934904 51.052394 0 1 -0.01205,0.152429 2.7181205,4.2934904 51.052394 0 1 -0.0205,0.155064 2.7181205,4.2934904 51.052394 0 1 -0.02896,0.15767 2.7181205,4.2934904 51.052394 0 1 -0.03739,0.160331 2.7181205,4.2934904 51.052394 0 1 -0.04761,0.15941 2.7181205,4.2934904 51.052394 0 1 -0.05429,0.165593 2.7181205,4.2934904 51.052394 0 1 -0.06347,0.160241 2.7181205,4.2934904 51.052394 0 1 -0.06909,0.161988 2.7181205,4.2934904 51.052394 0 1 -0.07755,0.164599 2.7181205,4.2934904 51.052394 0 1 -0.08778,0.163656 2.7181205,4.2934904 51.052394 0 1 -0.09235,0.160979 2.7181205,4.2934904 51.052394 0 1 -0.09799,0.162733 2.7181205,4.2934904 51.052394 0 1 -0.109999,0.158206 2.7181205,4.2934904 51.052394 0 1 -0.112809,0.159095 2.7181205,4.2934904 51.052394 0 1 -0.119175,0.152824 2.7181205,4.2934904 51.052394 0 1 -0.127614,0.155473 2.7181205,4.2934904 51.052394 0 1 -0.131184,0.148298 2.7181205,4.2934904 51.052394 0 1 -0.136817,0.150049 2.7181205,4.2934904 51.052394 0 1 -0.143172,0.143795 2.7181205,4.2934904 51.052394 0 1 -0.149537,0.137534 2.7181205,4.2934904 51.052394 0 1 -0.151311,0.133963 2.7181205,4.2934904 51.052394 0 1 -0.158679,0.132201 2.7181205,4.2934904 51.052394 0 1 -0.492131,0.36427 2.7181205,4.2934904 51.052394 0 1 -0.514205,0.31332 2.7181205,4.2934904 51.052394 0 1 -0.532415,0.257053 2.7181205,4.2934904 51.052394 0 1 -0.09391,0.03354 4.1830297,5.9165009 33.073845 0 0 -0.257808,-0.315945 4.1830297,5.9165009 33.073845 0 0 -3.511213,-0.770405 2.7181205,4.2934904 51.052394 0 1 -0.0167,-0.118667 4.1830297,5.9165009 33.073845 0 1 1.361992,-2.291646 4.1830297,5.9165009 33.073845 0 1 5.849336,-2.024055 z" />
              <path
                 id="path2152"
                 style="fill:url(#linearGradient2258);fill-opacity:1;stroke-width:26.6383"
                 d="m 68.174925,90.669247 a 4.7161131,6.4975121 41.164595 0 1 -0.247218,0.06271 4.7161131,6.4975121 41.164595 0 0 -0.351922,-5.131275 2.9786359,4.8510662 56.783742 0 0 0.109528,-0.03615 2.9786359,4.8510662 56.783742 0 0 0.62057,-0.275813 2.9786359,4.8510662 56.783742 0 0 0.598983,-0.335307 2.9786359,4.8510662 56.783742 0 0 0.572881,-0.389173 2.9786359,4.8510662 56.783742 0 0 0.184628,-0.14111 2.9786359,4.8510662 56.783742 0 0 0.176006,-0.142927 2.9786359,4.8510662 56.783742 0 0 0.173919,-0.146702 2.9786359,4.8510662 56.783742 0 0 0.166443,-0.153298 2.9786359,4.8510662 56.783742 0 0 0.158982,-0.159882 2.9786359,4.8510662 56.783742 0 0 0.152409,-0.157991 2.9786359,4.8510662 56.783742 0 0 0.148195,-0.16557 2.9786359,4.8510662 56.783742 0 0 0.138355,-0.162711 2.9786359,4.8510662 56.783742 0 0 0.130878,-0.169315 2.9786359,4.8510662 56.783742 0 0 0.127599,-0.168353 2.9786359,4.8510662 56.783742 0 0 0.11353,-0.173094 2.9786359,4.8510662 56.783742 0 0 0.106998,-0.171144 2.9786359,4.8510662 56.783742 0 0 0.101526,-0.174127 2.9786359,4.8510662 56.783742 0 0 0.08966,-0.174901 2.9786359,4.8510662 56.783742 0 0 0.07984,-0.172016 2.9786359,4.8510662 56.783742 0 0 0.07321,-0.170228 2.9786359,4.8510662 56.783742 0 0 0.0625,-0.175767 2.9786359,4.8510662 56.783742 0 0 0.0547,-0.169214 2.9786359,4.8510662 56.783742 0 0 0.04275,-0.170188 2.9786359,4.8510662 56.783742 0 0 0.03292,-0.167265 2.9786359,4.8510662 56.783742 0 0 0.02309,-0.1644 2.9786359,4.8510662 56.783742 0 0 0.01325,-0.161493 2.9786359,4.8510662 56.783742 0 0 0.0054,-0.155108 2.9786359,4.8510662 56.783742 0 0 -0.0031,-0.156771 2.9786359,4.8510662 56.783742 0 0 -0.0164,-0.153098 2.9786359,4.8510662 56.783742 0 0 -0.02745,-0.14556 2.9786359,4.8510662 56.783742 0 0 -0.03387,-0.143471 2.9786359,4.8510662 56.783742 0 0 -0.04501,-0.136005 2.9786359,4.8510662 56.783742 0 0 -0.0549,-0.13331 2.9786359,4.8510662 56.783742 0 0 -0.06263,-0.126655 2.9786359,4.8510662 56.783742 0 0 -0.04523,-0.07446 4.7161131,6.4975121 41.164595 0 1 0.976485,0.646896 4.7161131,6.4975121 41.164595 0 1 -0.97296,8.051871 4.7161131,6.4975121 41.164595 0 1 -3.374502,2.242226 z" />
            </g>
          </g>
          <g
             id="g2164"
             transform="matrix(0.48645666,0.29654318,-0.29654318,0.48645666,46.57509,30.470741)"
             style="fill:url(#linearGradient3186);fill-opacity:1">
            <g
               id="g2162"
               style="fill:url(#linearGradient3184);fill-opacity:1">
              <path
                 id="path2158"
                 style="fill:url(#linearGradient3180);fill-opacity:1;stroke-width:23.9397"
                 d="m 70.862387,85.515796 a 2.7181205,4.2934904 51.052394 0 1 0.03848,0.07066 2.7181205,4.2934904 51.052394 0 1 0.05288,0.119651 2.7181205,4.2934904 51.052394 0 1 0.04629,0.125952 2.7181205,4.2934904 51.052394 0 1 0.03788,0.128576 2.7181205,4.2934904 51.052394 0 1 0.02841,0.135746 2.7181205,4.2934904 51.052394 0 1 0.0228,0.137485 2.7181205,4.2934904 51.052394 0 1 0.01327,0.144497 2.7181205,4.2934904 51.052394 0 1 0.002,0.147991 2.7181205,4.2934904 51.052394 0 1 -0.0055,0.146099 2.7181205,4.2934904 51.052394 0 1 -0.01205,0.152429 2.7181205,4.2934904 51.052394 0 1 -0.0205,0.155064 2.7181205,4.2934904 51.052394 0 1 -0.02896,0.15767 2.7181205,4.2934904 51.052394 0 1 -0.03739,0.160331 2.7181205,4.2934904 51.052394 0 1 -0.04761,0.15941 2.7181205,4.2934904 51.052394 0 1 -0.05429,0.165593 2.7181205,4.2934904 51.052394 0 1 -0.06347,0.160241 2.7181205,4.2934904 51.052394 0 1 -0.06909,0.161988 2.7181205,4.2934904 51.052394 0 1 -0.07755,0.164599 2.7181205,4.2934904 51.052394 0 1 -0.08778,0.163656 2.7181205,4.2934904 51.052394 0 1 -0.09235,0.160979 2.7181205,4.2934904 51.052394 0 1 -0.09799,0.162733 2.7181205,4.2934904 51.052394 0 1 -0.109999,0.158206 2.7181205,4.2934904 51.052394 0 1 -0.112809,0.159095 2.7181205,4.2934904 51.052394 0 1 -0.119175,0.152824 2.7181205,4.2934904 51.052394 0 1 -0.127614,0.155473 2.7181205,4.2934904 51.052394 0 1 -0.131184,0.148298 2.7181205,4.2934904 51.052394 0 1 -0.136817,0.150049 2.7181205,4.2934904 51.052394 0 1 -0.143172,0.143795 2.7181205,4.2934904 51.052394 0 1 -0.149537,0.137534 2.7181205,4.2934904 51.052394 0 1 -0.151311,0.133963 2.7181205,4.2934904 51.052394 0 1 -0.158679,0.132201 2.7181205,4.2934904 51.052394 0 1 -0.492131,0.36427 2.7181205,4.2934904 51.052394 0 1 -0.514205,0.31332 2.7181205,4.2934904 51.052394 0 1 -0.532415,0.257053 2.7181205,4.2934904 51.052394 0 1 -0.09391,0.03354 4.1830297,5.9165009 33.073845 0 0 -0.257808,-0.315945 4.1830297,5.9165009 33.073845 0 0 -3.511213,-0.770405 2.7181205,4.2934904 51.052394 0 1 -0.0167,-0.118667 4.1830297,5.9165009 33.073845 0 1 1.361992,-2.291646 4.1830297,5.9165009 33.073845 0 1 5.849336,-2.024055 z" />
              <path
                 id="path2160"
                 style="fill:url(#linearGradient3182);fill-opacity:1;stroke-width:26.6383"
                 d="m 68.174925,90.669247 a 4.7161131,6.4975121 41.164595 0 1 -0.247218,0.06271 4.7161131,6.4975121 41.164595 0 0 -0.351922,-5.131275 2.9786359,4.8510662 56.783742 0 0 0.109528,-0.03615 2.9786359,4.8510662 56.783742 0 0 0.62057,-0.275813 2.9786359,4.8510662 56.783742 0 0 0.598983,-0.335307 2.9786359,4.8510662 56.783742 0 0 0.572881,-0.389173 2.9786359,4.8510662 56.783742 0 0 0.184628,-0.14111 2.9786359,4.8510662 56.783742 0 0 0.176006,-0.142927 2.9786359,4.8510662 56.783742 0 0 0.173919,-0.146702 2.9786359,4.8510662 56.783742 0 0 0.166443,-0.153298 2.9786359,4.8510662 56.783742 0 0 0.158982,-0.159882 2.9786359,4.8510662 56.783742 0 0 0.152409,-0.157991 2.9786359,4.8510662 56.783742 0 0 0.148195,-0.16557 2.9786359,4.8510662 56.783742 0 0 0.138355,-0.162711 2.9786359,4.8510662 56.783742 0 0 0.130878,-0.169315 2.9786359,4.8510662 56.783742 0 0 0.127599,-0.168353 2.9786359,4.8510662 56.783742 0 0 0.11353,-0.173094 2.9786359,4.8510662 56.783742 0 0 0.106998,-0.171144 2.9786359,4.8510662 56.783742 0 0 0.101526,-0.174127 2.9786359,4.8510662 56.783742 0 0 0.08966,-0.174901 2.9786359,4.8510662 56.783742 0 0 0.07984,-0.172016 2.9786359,4.8510662 56.783742 0 0 0.07321,-0.170228 2.9786359,4.8510662 56.783742 0 0 0.0625,-0.175767 2.9786359,4.8510662 56.783742 0 0 0.0547,-0.169214 2.9786359,4.8510662 56.783742 0 0 0.04275,-0.170188 2.9786359,4.8510662 56.783742 0 0 0.03292,-0.167265 2.9786359,4.8510662 56.783742 0 0 0.02309,-0.1644 2.9786359,4.8510662 56.783742 0 0 0.01325,-0.161493 2.9786359,4.8510662 56.783742 0 0 0.0054,-0.155108 2.9786359,4.8510662 56.783742 0 0 -0.0031,-0.156771 2.9786359,4.8510662 56.783742 0 0 -0.0164,-0.153098 2.9786359,4.8510662 56.783742 0 0 -0.02745,-0.14556 2.9786359,4.8510662 56.783742 0 0 -0.03387,-0.143471 2.9786359,4.8510662 56.783742 0 0 -0.04501,-0.136005 2.9786359,4.8510662 56.783742 0 0 -0.0549,-0.13331 2.9786359,4.8510662 56.783742 0 0 -0.06263,-0.126655 2.9786359,4.8510662 56.783742 0 0 -0.04523,-0.07446 4.7161131,6.4975121 41.164595 0 1 0.976485,0.646896 4.7161131,6.4975121 41.164595 0 1 -0.97296,8.051871 4.7161131,6.4975121 41.164595 0 1 -3.374502,2.242226 z" />
            </g>
          </g>
          <path
             style="fill:url(#linearGradient2272);fill-opacity:1;stroke-width:0.925349"
             d="m 34.698572,99.543852 c 8.053019,11.072618 3.090885,9.305538 2.300355,13.771478 -1.873275,-0.48281 -1.433217,1.88796 5.495498,1.27707 l 2.381545,-1.18596 2.562262,-4.80749 -6.097394,-10.595986 -3.810272,0.222017 z"
             id="path2166"
             sodipodi:nodetypes="cccccccc" />
          <path
             id="path2168"
             style="fill:#333333;fill-opacity:1;stroke-width:56.8409"
             d="m 41.021962,112.52865 a 2.1354675,4.8516605 60.664203 0 0 0.314056,-0.38303 2.1354675,4.8516605 60.664203 0 0 0.277065,-0.38729 2.1354675,4.8516605 60.664203 0 0 0.201856,-0.38005 2.1354675,4.8516605 60.664203 0 0 0.130881,-0.35505 2.1354675,4.8516605 60.664203 0 0 0.06035,-0.33807 2.1354675,4.8516605 60.664203 0 0 -0.01634,-0.30693 2.1354675,4.8516605 60.664203 0 0 -0.0885,-0.26599 2.1354675,4.8516605 60.664203 0 0 -0.160289,-0.2291 2.1354675,4.8516605 60.664203 0 0 -0.238445,-0.178 2.1354675,4.8516605 60.664203 0 0 -0.395142,0.47785 2.0934264,4.9490936 58.064011 0 1 0.05099,0.0334 2.0934264,4.9490936 58.064011 0 1 0.105707,0.0928 2.0934264,4.9490936 58.064011 0 1 0.08897,0.10306 2.0934264,4.9490936 58.064011 0 1 0.07762,0.11158 2.0934264,4.9490936 58.064011 0 1 0.05523,0.12856 2.0934264,4.9490936 58.064011 0 1 0.04414,0.13307 2.0934264,4.9490936 58.064011 0 1 0.01666,0.14808 2.0934264,4.9490936 58.064011 0 1 -2.33e-4,0.15883 2.0934264,4.9490936 58.064011 0 1 -0.01648,0.16135 2.0934264,4.9490936 58.064011 0 1 -0.03279,0.16801 2.0934264,4.9490936 58.064011 0 1 -0.04951,0.17881 2.0934264,4.9490936 58.064011 0 1 -0.07144,0.18771 2.0934264,4.9490936 58.064011 0 1 -0.09318,0.19265 2.0934264,4.9490936 58.064011 0 1 -0.109357,0.19538 2.0934264,4.9490936 58.064011 0 1 -0.119997,0.19583 2.0934264,4.9490936 58.064011 0 1 -0.08292,0.12284 2.1354675,4.8516605 60.664203 0 0 0.05105,0.0335 z" />
          <rect
             style="fill:#333333;fill-opacity:1;stroke:url(#pattern2314);stroke-width:8.6745;stroke-opacity:1"
             id="rect2170"
             width="2.7087207"
             height="1.3713114"
             x="116.59705"
             y="-30.341639"
             ry="0.68565571"
             transform="matrix(0.10629875,0.99433424,-0.96924894,0.24608227,0,0)"
             inkscape:transform-center-y="-3.9343405"
             inkscape:transform-center-x="-9.1202957" />
          <path
             style="fill:#585bd3;fill-opacity:1;stroke-width:0.925349"
             d="m 31.245923,127.58247 4.670522,-5.78358 a 0.70898895,0.70898895 0.85730912 0 1 1.116262,0.0167 0.39248938,0.39248938 0.14820323 0 0 0.563416,0.001 l 2.121647,-1.71476 a 2.1663298,2.1663298 0.22060562 0 1 2.736378,0.0105 0.69172713,0.69172713 177.51268 0 0 0.898328,-0.039 l 1.475756,-1.31432 a 1.2434797,1.2434797 18.970831 0 1 2.050184,0.70476 l 0.261096,1.42684 a 0.63974069,0.63974069 29.422108 0 0 0.856322,0.48295 0.95766199,0.95766199 36.938379 0 1 1.255449,0.94394 l 0.0082,0.77994 a 0.59869143,0.59869143 34.833116 0 0 0.800804,0.55726 l 0.192655,-0.0691 a 0.28508575,0.28508575 38.124158 0 1 0.379792,0.29805 l -0.122548,1.16953 a 8.8204589,8.8204589 104.98595 0 1 -0.713921,2.66701 0.83688107,0.83688107 151.57019 0 1 -0.803857,0.43518 l -17.501922,-0.0594 a 0.31568899,0.31568899 64.558451 0 1 -0.244534,-0.51402 z"
             id="path2172"
             inkscape:original-d="m 30.832625,128.09426 5.652616,-6.99972 0.762411,1.00415 3.842598,-3.10566 1.808522,1.48485 3.58145,-3.18967 0.797542,4.3584 1.958695,-0.74349 0.03181,3.03616 1.411719,-0.5064 -0.315487,3.01085 -0.762851,1.71419 z"
             inkscape:path-effect="#path-effect2238" />
          <path
             style="fill:url(#linearGradient2274);fill-opacity:1;stroke-width:0.932394"
             d="m 34.590539,99.370294 c 0.0393,-0.383511 0.441671,-0.840746 1.016039,-1.332906 2.028088,-1.737812 5.937504,-3.497171 8.544368,-4.087261 1.938617,-0.438826 5.389368,-0.411092 7.654342,0.238246 0.160021,0.04588 0.320284,0.09273 0.480528,0.140575 2.868981,0.85659 5.801827,4.315984 6.746644,7.163442 0.310918,0.93704 0.733623,2.81166 0.790413,4.19729 0.02171,0.52961 0.04989,1.25443 0.114526,2.44005 0.07554,1.38565 -0.102046,3.60438 -0.413523,4.95663 a 55.110877,55.110877 97.733368 0 0 -1.232526,9.07614 l -0.296005,4.92759 a 1.7971112,1.7971112 136.41673 0 1 -1.774926,1.68925 l -2.715783,0.0286 -26.215956,0.0727 a 1.4472065,1.4472065 51.246411 0 1 -1.416079,-1.76417 l 0.06228,-0.27745 a 14.57098,14.57098 116.50108 0 1 3.112681,-6.24278 l 0.123212,-0.14503 a 32.378963,32.378963 136.94082 0 1 5.430334,-5.07436 11.067807,11.067807 134.13421 0 0 1.553155,-1.60082 c 1.153694,-0.0616 2.402076,0.62426 4.869497,0.78004 0.443049,0.028 0.960791,-0.29388 1.144957,-0.69794 2.730049,-5.98981 1.002945,-6.99669 -1.400988,-14.645625 -0.09771,-0.310887 -0.437621,-0.59366 -0.763429,-0.604298 -2.979914,-0.09729 -5.617344,1.404133 -5.411571,0.899206 0,-5e-6 -0.0099,-0.06179 -0.0022,-0.137129 z"
             id="path2174"
             sodipodi:nodetypes="cccccccccccccccccc"
             inkscape:original-d="m 34.59273,99.507414 c -0.15839,-1.106979 3.238736,-2.93593 4.858105,-4.403895 1.358473,-0.416796 4.783916,-1.176992 8.212509,-1.937713 2.863125,0.614632 6.945323,1.641958 9.658374,3.170803 l 2.273691,6.852381 c 0.3192,2.30081 0.10398,1.42092 0.492446,7.4489 l -1.493777,6.4851 -0.699147,11.63869 -4.390295,0.0463 -28.029173,0.0777 1.246217,-5.55174 4.871135,-5.73359 3.346923,-2.47378 1.214526,-1.35053 c 1.272636,-0.068 2.660491,0.77364 5.67275,0.80991 3.280281,-6.8028 1.354377,-7.45754 -1.233873,-15.93707 -3.211314,-0.343097 -6.219653,1.39652 -6.000411,0.858543 z"
             inkscape:path-effect="#path-effect2242" />
          <path
             id="path2178"
             style="fill:#4b4c50;fill-opacity:1;stroke-width:14.1322"
             d="m 58.328954,91.133542 a 1.3443881,3.0250754 88.541688 0 0 0.03986,-0.05224 2.1139371,4.079862 80.299319 0 0 0.05068,0.01419 2.1139371,4.079862 80.299319 0 1 -0.09053,0.03806 z" />
          <path
             id="path2180"
             style="fill:#f4d804;fill-opacity:1;stroke-width:15.4524"
             d="m 50.955482,100.85137 a 4.2443218,2.4294276 15.426923 0 1 0.123105,0.10503 4.2443218,2.4294276 15.426923 0 0 -2.566308,1.33913 3.178891,1.5295368 24.413218 0 0 -0.05894,-0.0446 3.178891,1.5295368 24.413218 0 0 -0.371159,-0.23661 3.178891,1.5295368 24.413218 0 0 -0.394531,-0.21263 3.178891,1.5295368 24.413218 0 0 -0.413314,-0.18769 3.178891,1.5295368 24.413218 0 0 -0.141439,-0.057 3.178891,1.5295368 24.413218 0 0 -0.139257,-0.0524 3.178891,1.5295368 24.413218 0 0 -0.140478,-0.0506 3.178891,1.5295368 24.413218 0 0 -0.141209,-0.0454 3.178891,1.5295368 24.413218 0 0 -0.141949,-0.0402 3.178891,1.5295368 24.413218 0 0 -0.138549,-0.0375 3.178891,1.5295368 24.413218 0 0 -0.140986,-0.0338 3.178891,1.5295368 24.413218 0 0 -0.135924,-0.0297 3.178891,1.5295368 24.413218 0 0 -0.136662,-0.0245 3.178891,1.5295368 24.413218 0 0 -0.134961,-0.0231 3.178891,1.5295368 24.413218 0 0 -0.132302,-0.0153 3.178891,1.5295368 24.413218 0 0 -0.128897,-0.0126 3.178891,1.5295368 24.413218 0 0 -0.128472,-0.01 3.178891,1.5295368 24.413218 0 0 -0.124533,-0.004 3.178891,1.5295368 24.413218 0 0 -0.119435,6.3e-4 3.178891,1.5295368 24.413218 0 0 -0.116087,0.004 3.178891,1.5295368 24.413218 0 0 -0.115103,0.01 3.178891,1.5295368 24.413218 0 0 -0.1088,0.0121 3.178891,1.5295368 24.413218 0 0 -0.104968,0.0182 3.178891,1.5295368 24.413218 0 0 -0.09985,0.0222 3.178891,1.5295368 24.413218 0 0 -0.09476,0.0264 3.178891,1.5295368 24.413218 0 0 -0.08965,0.0304 3.178891,1.5295368 24.413218 0 0 -0.08342,0.0328 3.178891,1.5295368 24.413218 0 0 -0.08116,0.0373 3.178891,1.5295368 24.413218 0 0 -0.07441,0.0427 3.178891,1.5295368 24.413218 0 0 -0.06643,0.0464 3.178891,1.5295368 24.413218 0 0 -0.06299,0.049 3.178891,1.5295368 24.413218 0 0 -0.05501,0.0527 3.178891,1.5295368 24.413218 0 0 -0.04998,0.0569 3.178891,1.5295368 24.413218 0 0 -0.04368,0.0591 3.178891,1.5295368 24.413218 0 0 -0.0226,0.0387 4.2443218,2.4294276 15.426923 0 1 -0.01643,-0.61858 4.2443218,2.4294276 15.426923 0 1 4.58324,-1.365462 4.2443218,2.4294276 15.426923 0 1 2.408102,1.117532 z" />
          <path
             id="path2182"
             style="fill:#4b4c50;fill-opacity:1;stroke-width:14.1322"
             d="m 46.73833,101.44283 a 1.3443881,3.0250754 88.541688 0 1 0.0075,-0.0395 1.3443881,3.0250754 88.541688 0 1 0.01968,-0.0631 1.3443881,3.0250754 88.541688 0 1 0.02605,-0.0638 1.3443881,3.0250754 88.541688 0 1 0.03193,-0.0624 1.3443881,3.0250754 88.541688 0 1 0.04029,-0.0625 1.3443881,3.0250754 88.541688 0 1 0.04422,-0.0615 1.3443881,3.0250754 88.541688 0 1 0.05255,-0.0615 1.3443881,3.0250754 88.541688 0 1 0.06042,-0.0597 1.3443881,3.0250754 88.541688 0 1 0.06386,-0.0567 1.3443881,3.0250754 88.541688 0 1 0.07025,-0.0573 1.3443881,3.0250754 88.541688 0 1 0.07616,-0.0559 1.3443881,3.0250754 88.541688 0 1 0.08206,-0.0545 1.3443881,3.0250754 88.541688 0 1 0.08797,-0.0531 1.3443881,3.0250754 88.541688 0 1 0.0934,-0.0497 1.3443881,3.0250754 88.541688 0 1 0.09977,-0.0503 1.3443881,3.0250754 88.541688 0 1 0.102769,-0.0455 1.3443881,3.0250754 88.541688 0 1 0.106697,-0.0445 1.3443881,3.0250754 88.541688 0 1 0.112594,-0.0431 1.3443881,3.0250754 88.541688 0 1 0.118027,-0.0397 1.3443881,3.0250754 88.541688 0 1 0.119515,-0.0373 1.3443881,3.0250754 88.541688 0 1 0.123453,-0.0364 1.3443881,3.0250754 88.541688 0 1 0.128403,-0.0311 1.3443881,3.0250754 88.541688 0 1 0.130372,-0.0306 1.3443881,3.0250754 88.541688 0 1 0.131386,-0.0262 1.3443881,3.0250754 88.541688 0 1 0.137291,-0.0248 1.3443881,3.0250754 88.541688 0 1 0.136338,-0.0209 1.3443881,3.0250754 88.541688 0 1 0.140272,-0.02 1.3443881,3.0250754 88.541688 0 1 0.141288,-0.0156 1.3443881,3.0250754 88.541688 0 1 0.142306,-0.0113 1.3443881,3.0250754 88.541688 0 1 0.141829,-0.009 1.3443881,3.0250754 88.541688 0 1 0.14529,-0.007 1.3443881,3.0250754 88.541688 0 1 0.431581,-0.002 1.3443881,3.0250754 88.541688 0 1 0.422951,0.0249 1.3443881,3.0250754 88.541688 0 1 0.40991,0.0527 1.3443881,3.0250754 88.541688 0 1 0.06739,0.014 2.1139371,4.079862 80.299319 0 0 0.01531,0.20132 2.1139371,4.079862 80.299319 0 0 1.677761,1.3318 1.3443881,3.0250754 88.541688 0 1 -0.03986,0.0522 2.1139371,4.079862 80.299319 0 1 -1.728276,0.51737 2.1139371,4.079862 80.299319 0 1 -4.170683,-0.89851 z" />
          <path
             id="path2184"
             style="fill:#4b4c50;fill-opacity:1;stroke-width:14.1322"
             d="m 49.717562,100.15207 a 2.1139371,4.079862 80.299319 0 1 0.144658,0.0387 2.1139371,4.079862 80.299319 0 0 -1.857128,2.01424 1.3443881,3.0250754 88.541688 0 0 -0.06739,-0.014 1.3443881,3.0250754 88.541688 0 0 -0.409908,-0.0528 1.3443881,3.0250754 88.541688 0 0 -0.422953,-0.025 1.3443881,3.0250754 88.541688 0 0 -0.431581,0.002 1.3443881,3.0250754 88.541688 0 0 -0.14529,0.006 1.3443881,3.0250754 88.541688 0 0 -0.141828,0.009 1.3443881,3.0250754 88.541688 0 0 -0.142306,0.0113 1.3443881,3.0250754 88.541688 0 0 -0.141286,0.0156 1.3443881,3.0250754 88.541688 0 0 -0.140274,0.02 1.3443881,3.0250754 88.541688 0 0 -0.136337,0.0209 1.3443881,3.0250754 88.541688 0 0 -0.13729,0.0248 1.3443881,3.0250754 88.541688 0 0 -0.131387,0.0262 1.3443881,3.0250754 88.541688 0 0 -0.130373,0.0307 1.3443881,3.0250754 88.541688 0 0 -0.128402,0.0311 1.3443881,3.0250754 88.541688 0 0 -0.123455,0.0363 1.3443881,3.0250754 88.541688 0 0 -0.119514,0.0373 1.3443881,3.0250754 88.541688 0 0 -0.118042,0.0398 1.3443881,3.0250754 88.541688 0 0 -0.112592,0.043 1.3443881,3.0250754 88.541688 0 0 -0.10669,0.0444 1.3443881,3.0250754 88.541688 0 0 -0.102769,0.0454 1.3443881,3.0250754 88.541688 0 0 -0.09976,0.0502 1.3443881,3.0250754 88.541688 0 0 -0.0934,0.0497 1.3443881,3.0250754 88.541688 0 0 -0.08798,0.0531 1.3443881,3.0250754 88.541688 0 0 -0.08206,0.0545 1.3443881,3.0250754 88.541688 0 0 -0.07616,0.0559 1.3443881,3.0250754 88.541688 0 0 -0.07024,0.0573 1.3443881,3.0250754 88.541688 0 0 -0.06388,0.0569 1.3443881,3.0250754 88.541688 0 0 -0.06041,0.0596 1.3443881,3.0250754 88.541688 0 0 -0.05255,0.0615 1.3443881,3.0250754 88.541688 0 0 -0.04422,0.0615 1.3443881,3.0250754 88.541688 0 0 -0.04027,0.0624 1.3443881,3.0250754 88.541688 0 0 -0.03193,0.0624 1.3443881,3.0250754 88.541688 0 0 -0.02605,0.0639 1.3443881,3.0250754 88.541688 0 0 -0.01969,0.0633 1.3443881,3.0250754 88.541688 0 0 -0.0075,0.0394 2.1139371,4.079862 80.299319 0 1 -0.217856,-0.48859 2.1139371,4.079862 80.299319 0 1 3.65372,-2.77673 2.1139371,4.079862 80.299319 0 1 2.522371,0.008 z" />
          <rect
             style="fill:#333333;fill-opacity:1;stroke-width:12.2058"
             id="rect2186"
             width="7.6064925"
             height="1.4827268"
             x="7.6838541"
             y="114.07491"
             ry="0.74136341"
             transform="matrix(0.96994124,-0.24333925,0.22099585,0.97527475,0,0)" />
          <rect
             style="fill:#333333;fill-opacity:1;stroke-width:12.2058"
             id="rect2188"
             width="7.6064925"
             height="1.4827268"
             x="106.1246"
             y="-16.546347"
             ry="0.74136341"
             transform="matrix(0.21241067,0.97718049,-0.98180167,0.18990915,0,0)" />
          <path
             id="path2190"
             style="fill:#333333;fill-opacity:1;stroke-width:37.1476"
             d="m 40.534331,105.89614 a 1.6557394,2.67259 76.927865 0 0 -0.182853,0.20465 1.6557394,2.67259 76.927865 0 0 -0.159972,0.21529 1.6557394,2.67259 76.927865 0 0 -0.113953,0.22571 1.6557394,2.67259 76.927865 0 0 -0.07098,0.22279 1.6557394,2.67259 76.927865 0 0 -0.02807,0.2254 1.6557394,2.67259 76.927865 0 0 0.01826,0.21931 1.6557394,2.67259 76.927865 0 0 0.06153,0.20542 1.6557394,2.67259 76.927865 0 0 0.104705,0.19427 1.6557394,2.67259 76.927865 0 0 0.151385,0.17448 1.6557394,2.67259 76.927865 0 0 0.230194,-0.2546 1.6382563,2.7011113 71.748222 0 1 -0.03227,-0.034 1.6382563,2.7011113 71.748222 0 1 -0.06749,-0.0871 1.6382563,2.7011113 71.748222 0 1 -0.05746,-0.0909 1.6382563,2.7011113 71.748222 0 1 -0.05073,-0.0945 1.6382563,2.7011113 71.748222 0 1 -0.03741,-0.10185 1.6382563,2.7011113 71.748222 0 1 -0.03073,-0.10275 1.6382563,2.7011113 71.748222 0 1 -0.0142,-0.10764 1.6382563,2.7011113 71.748222 0 1 -0.004,-0.11169 1.6382563,2.7011113 71.748222 0 1 0.0059,-0.11013 1.6382563,2.7011113 71.748222 0 1 0.01566,-0.11143 1.6382563,2.7011113 71.748222 0 1 0.02568,-0.11559 1.6382563,2.7011113 71.748222 0 1 0.0389,-0.1173 1.6382563,2.7011113 71.748222 0 1 0.0521,-0.11634 1.6382563,2.7011113 71.748222 0 1 0.06199,-0.11488 1.6382563,2.7011113 71.748222 0 1 0.06853,-0.113 1.6382563,2.7011113 71.748222 0 1 0.04774,-0.0693 1.6557394,2.67259 76.927865 0 0 -0.03228,-0.0341 z" />
          <path
             id="path2192"
             style="fill:#333333;fill-opacity:1;stroke-width:99.1519"
             d="m 39.688161,107.48724 a 5.9829177,5.2693653 49.024211 0 0 0.4925,-0.45401 5.9829177,5.2693653 49.024211 0 0 0.453249,-0.51368 5.9829177,5.2693653 49.024211 0 0 0.367691,-0.5988 5.9829177,5.2693653 49.024211 0 0 0.279832,-0.63719 5.9829177,5.2693653 49.024211 0 0 0.195657,-0.69356 5.9829177,5.2693653 49.024211 0 0 0.0992,-0.72571 5.9829177,5.2693653 49.024211 0 0 0.004,-0.72936 5.9829177,5.2693653 49.024211 0 0 -0.08919,-0.74172 5.9829177,5.2693653 49.024211 0 0 -0.194899,-0.73012 5.9829177,5.2693653 49.024211 0 0 -0.618066,0.56179 5.7263734,5.5054357 34.790934 0 1 0.04348,0.14555 5.7263734,5.5054357 34.790934 0 1 0.08104,0.35541 5.7263734,5.5054357 34.790934 0 1 0.05878,0.35638 5.7263734,5.5054357 34.790934 0 1 0.04285,0.3607 5.7263734,5.5054357 34.790934 0 1 0.01185,0.36934 5.7263734,5.5054357 34.790934 0 1 -0.0021,0.36463 5.7263734,5.5054357 34.790934 0 1 -0.03821,0.36203 5.7263734,5.5054357 34.790934 0 1 -0.06096,0.36382 5.7263734,5.5054357 34.790934 0 1 -0.07976,0.34761 5.7263734,5.5054357 34.790934 0 1 -0.100288,0.34091 5.7263734,5.5054357 34.790934 0 1 -0.122855,0.34308 5.7263734,5.5054357 34.790934 0 1 -0.150532,0.33384 5.7263734,5.5054357 34.790934 0 1 -0.176283,0.31581 5.7263734,5.5054357 34.790934 0 1 -0.19514,0.30024 5.7263734,5.5054357 34.790934 0 1 -0.207301,0.28668 5.7263734,5.5054357 34.790934 0 1 -0.138262,0.16965 5.9829177,5.2693653 49.024211 0 0 0.04357,0.14566 z" />
          <path
             id="path2194"
             style="fill:#333333;fill-opacity:1;stroke-width:108.113"
             d="m 35.776516,99.323001 c 0.237775,-0.07207 0.47651,-0.126383 0.714758,-0.162623 0.243486,-0.0479 0.486551,-0.07698 0.72766,-0.08705 0.244445,-0.0035 0.485972,0.0126 0.723003,0.04834 0.232691,0.03315 0.46067,0.08505 0.682507,0.155379 0.226685,0.07137 0.446496,0.161812 0.657998,0.270723 0.21131,0.109278 0.41383,0.236777 0.606235,0.381665 0.188699,0.141525 0.367313,0.299455 0.53472,0.472785 0.169094,0.17436 0.326455,0.36403 0.471081,0.56779 0.14009,0.20679 0.267093,0.42685 0.380206,0.65879 -0.296071,0.0975 -0.59406,0.16749 -0.89116,0.20932 -0.02344,-0.0457 -0.04752,-0.0909 -0.07223,-0.13563 -0.06173,-0.1057 -0.127061,-0.20835 -0.195875,-0.30779 -0.06793,-0.0992 -0.139267,-0.19509 -0.21391,-0.28768 -0.07317,-0.0953 -0.149704,-0.18726 -0.229475,-0.27565 -0.08343,-0.088 -0.170133,-0.17213 -0.25997,-0.25237 -0.08608,-0.0826 -0.175261,-0.16142 -0.267389,-0.23628 -0.09511,-0.0711 -0.193032,-0.13809 -0.293609,-0.20093 -0.101573,-0.0647 -0.205848,-0.12498 -0.312652,-0.180882 -0.102892,-0.0551 -0.208127,-0.106044 -0.31554,-0.152738 -0.106804,-0.04734 -0.215742,-0.09043 -0.326645,-0.12922 -0.113282,-0.04111 -0.22861,-0.07766 -0.345793,-0.109601 -0.118504,-0.03062 -0.23878,-0.05655 -0.360629,-0.07773 -0.121184,-0.01866 -0.243775,-0.03267 -0.367576,-0.042 -0.122579,-0.0093 -0.24628,-0.01404 -0.370909,-0.01417 -0.12266,-0.0026 -0.246233,-7.56e-4 -0.370526,0.0056 -0.0769,0.0043 -0.154053,0.01035 -0.231407,0.0181 -0.02463,-0.04477 -1.158082,0.159966 -1.181605,0.11422 z"
             sodipodi:nodetypes="ccccccccccccccccccccccccccccc" />
          <rect
             style="fill:#333333;fill-opacity:1;stroke:url(#pattern2316);stroke-width:8.6745;stroke-opacity:1"
             id="rect2196"
             width="2.7087207"
             height="1.3713114"
             x="113.90031"
             y="-28.334784"
             ry="0.68565571"
             transform="matrix(0.10629875,0.99433424,-0.96924894,0.24608227,0,0)"
             inkscape:transform-center-y="-3.9343405"
             inkscape:transform-center-x="-9.1202957" />
          <path
             style="fill:url(#linearGradient2278);fill-opacity:1;stroke-width:0.645402"
             d="m 34.983649,99.433015 c -0.128466,0.04596 -0.25514,0.0907 -0.379272,0.134079 -1.201896,0.419969 -2.493538,1.122296 -2.977794,1.499046 -2.317005,1.80258 -4.480285,5.73661 -4.644976,9.03948 -2e-6,5e-5 0.04231,0.15742 0.09403,0.35168 0.129378,0.48596 1.473741,0.55611 3.082543,0.12324 1.827004,-0.49157 3.459356,-0.93888 6.543232,-1.71811 3.11001,-0.78583 5.233872,-3.98222 4.20249,-7.01404 -0.866028,-2.545743 -3.348677,-3.335278 -5.920256,-2.415375 z"
             id="path2198"
             sodipodi:nodetypes="ccccccc"
             inkscape:original-d="m 39.4042,97.216311 c -0.628299,1.110146 -6.605358,2.961269 -6.991787,3.064569 2.066558,-1.414617 -2.613088,2.35291 -5.132607,3.84437 l -0.298201,5.98042 c 0.686937,2.55892 0.173617,0.8312 0.260425,1.2468 4.665256,-1.21058 5.588538,-1.56694 15.097285,-3.88601 -0.297209,-3.13082 -2.011306,-6.82929 -2.935115,-10.250149 z"
             inkscape:path-effect="#path-effect2246" />
          <path
             id="path2200"
             style="fill:#333333;fill-opacity:1;stroke-width:57.8248"
             d="m 41.702186,110.50615 a 2.6190459,4.0940293 4.1339321 0 0 -0.01777,-0.51588 2.6190459,4.0940293 4.1339321 0 0 -0.049,-0.51872 2.6190459,4.0940293 4.1339321 0 0 -0.101715,-0.50421 2.6190459,4.0940293 4.1339321 0 0 -0.139224,-0.46695 2.6190459,4.0940293 4.1339321 0 0 -0.181797,-0.44017 2.6190459,4.0940293 4.1339321 0 0 -0.219538,-0.39464 2.6190459,4.0940293 4.1339321 0 0 -0.247212,-0.33682 2.6190459,4.0940293 4.1339321 0 0 -0.277316,-0.28424 2.6190459,4.0940293 4.1339321 0 0 -0.302734,-0.21286 2.6190459,4.0940293 4.1339321 0 0 0.01958,0.64375 2.4987216,4.2911744 3.7562822 0 1 0.06164,0.0396 2.4987216,4.2911744 3.7562822 0 1 0.143528,0.11226 2.4987216,4.2911744 3.7562822 0 1 0.137674,0.12662 2.4987216,4.2911744 3.7562822 0 1 0.134717,0.13854 2.4987216,4.2911744 3.7562822 0 1 0.129041,0.1619 2.4987216,4.2911744 3.7562822 0 1 0.123568,0.16845 2.4987216,4.2911744 3.7562822 0 1 0.112644,0.18979 2.4987216,4.2911744 3.7562822 0 1 0.106943,0.20483 2.4987216,4.2911744 3.7562822 0 1 0.09621,0.20921 2.4987216,4.2911744 3.7562822 0 1 0.08821,0.21892 2.4987216,4.2911744 3.7562822 0 1 0.08269,0.23404 2.4987216,4.2911744 3.7562822 0 1 0.07189,0.24706 2.4987216,4.2911744 3.7562822 0 1 0.05856,0.25492 2.4987216,4.2911744 3.7562822 0 1 0.04801,0.25957 2.4987216,4.2911744 3.7562822 0 1 0.04016,0.26091 2.4987216,4.2911744 3.7562822 0 1 0.01928,0.16417 2.6190459,4.0940293 4.1339321 0 0 0.06171,0.0397 z" />
          <path
             id="path2202"
             style="fill:#333333;fill-opacity:1;stroke-width:138.466"
             d="m 34.66619,112.77787 a 10.3762,5.9252898 46.724175 0 0 1.040625,0.3781 10.3762,5.9252898 46.724175 0 0 1.040741,0.28971 10.3762,5.9252898 46.724175 0 0 1.001401,0.124 10.3762,5.9252898 46.724175 0 0 0.919176,-0.0172 10.3762,5.9252898 46.724175 0 0 0.856987,-0.16229 10.3762,5.9252898 46.724175 0 0 0.757891,-0.31002 10.3762,5.9252898 46.724175 0 0 0.635711,-0.43868 10.3762,5.9252898 46.724175 0 0 0.523718,-0.57013 10.3762,5.9252898 46.724175 0 0 0.374614,-0.7035 10.3762,5.9252898 46.724175 0 0 -1.299145,-0.47935 10.595048,5.8028996 42.774351 0 1 -0.06864,0.14629 10.595048,5.8028996 42.774351 0 1 -0.200507,0.32418 10.595048,5.8028996 42.774351 0 1 -0.230816,0.29501 10.595048,5.8028996 42.774351 0 1 -0.255186,0.27657 10.595048,5.8028996 42.774351 0 1 -0.303768,0.24058 10.595048,5.8028996 42.774351 0 1 -0.318056,0.21915 10.595048,5.8028996 42.774351 0 1 -0.363182,0.16971 10.595048,5.8028996 42.774351 0 1 -0.394664,0.14057 10.595048,5.8028996 42.774351 0 1 -0.405512,0.10572 10.595048,5.8028996 42.774351 0 1 -0.426687,0.0742 10.595048,5.8028996 42.774351 0 1 -0.458296,0.0457 10.595048,5.8028996 42.774351 0 1 -0.486571,0.004 10.595048,5.8028996 42.774351 0 1 -0.505034,-0.042 10.595048,5.8028996 42.774351 0 1 -0.516366,-0.0766 10.595048,5.8028996 42.774351 0 1 -0.520544,-0.10062 10.595048,5.8028996 42.774351 0 1 -0.328675,-0.0807 10.3762,5.9252898 46.724175 0 0 -0.06884,0.14656 z" />
          <path
             id="path2204"
             style="fill:#333333;fill-opacity:1;stroke-width:79.0034"
             d="m 41.947404,111.00803 a 4.0318262,4.9642785 60.016106 0 0 0.102017,-0.54447 4.0318262,4.9642785 60.016106 0 0 0.04858,-0.55303 4.0318262,4.9642785 60.016106 0 0 -0.04666,-0.5473 4.0318262,4.9642785 60.016106 0 0 -0.121307,-0.51487 4.0318262,4.9642785 60.016106 0 0 -0.202084,-0.49441 4.0318262,4.9642785 60.016106 0 0 -0.27929,-0.45338 4.0318262,4.9642785 60.016106 0 0 -0.342193,-0.39769 4.0318262,4.9642785 60.016106 0 0 -0.407967,-0.3479 4.0318262,4.9642785 60.016106 0 0 -0.47045,-0.27754 4.0318262,4.9642785 60.016106 0 0 -0.131813,0.67894 4.0083282,4.9933805 47.468786 0 1 0.09675,0.0526 4.0083282,4.9933805 47.468786 0 1 0.22012,0.1435 4.0083282,4.9933805 47.468786 0 1 0.206266,0.15749 4.0083282,4.9933805 47.468786 0 1 0.198075,0.16949 4.0083282,4.9933805 47.468786 0 1 0.182209,0.19298 4.0083282,4.9933805 47.468786 0 1 0.171019,0.19887 4.0083282,4.9933805 47.468786 0 1 0.146588,0.21932 4.0083282,4.9933805 47.468786 0 1 0.132804,0.23408 4.0083282,4.9933805 47.468786 0 1 0.113043,0.23672 4.0083282,4.9933805 47.468786 0 1 0.09667,0.24553 4.0083282,4.9933805 47.468786 0 1 0.0832,0.26035 4.0083282,4.9933805 47.468786 0 1 0.06103,0.27212 4.0083282,4.9933805 47.468786 0 1 0.03598,0.27796 4.0083282,4.9933805 47.468786 0 1 0.01645,0.28095 4.0083282,4.9933805 47.468786 0 1 0.0025,0.28098 4.0083282,4.9933805 47.468786 0 1 -0.0087,0.17572 4.0318262,4.9642785 60.016106 0 0 0.09685,0.0526 z" />
          <path
             style="fill:url(#linearGradient2280);fill-opacity:1;stroke-width:0.34351"
             d="m 40.991368,111.59218 c -0.05838,0.59883 -0.150763,1.44165 -2.953842,1.83834 -0.362465,0.0513 -0.953986,0.0562 -1.319028,0.0275 a 6.7724769,6.7724769 27.572258 0 1 -4.70276,-2.45564 c -0.538918,-0.75172 0.420046,-0.99883 1.617749,-1.28029 1.653175,-0.38851 3.581035,-0.85852 4.636562,-1.14419 0.30261,-0.0819 0.664811,-0.55637 0.998765,-0.61473 0.32095,-0.0561 0.879246,-0.79544 1.213316,-0.52777 0.551446,0.44184 1.23705,1.78457 1.037275,2.91384 -0.06677,0.37742 -0.492763,0.88113 -0.528037,1.24293 z"
             id="path2206"
             sodipodi:nodetypes="cccccscc"
             inkscape:original-d="m 41.280109,111.00068 c -0.835431,0.37608 0.967203,2.01252 -3.900645,2.50929 l -3.532698,-0.27758 -1.831028,-2.23 c -0.196772,-0.27832 -0.459809,-0.58524 -0.553717,-0.78287 2.37907,-0.52258 9.02278,-2.12185 7.325046,-1.87592 -0.413562,0.0598 -0.48051,-0.31985 1.067064,-0.45388 0.01162,-1.95217 2.515951,1.30255 1.425978,3.11096 z"
             inkscape:path-effect="#path-effect2250" />
          <path
             id="path2208"
             style="fill:#333333;fill-opacity:1;stroke-width:35.2928"
             d="m 39.642916,101.50558 a 1.3909834,2.8715497 40.170325 0 0 0.07887,0.17368 1.3909834,2.8715497 40.170325 0 0 0.10425,0.15375 1.3909834,2.8715497 40.170325 0 0 0.14471,0.11319 1.3909834,2.8715497 40.170325 0 0 0.170095,0.0745 1.3909834,2.8715497 40.170325 0 0 0.200913,0.0362 1.3909834,2.8715497 40.170325 0 0 0.225452,-0.006 1.3909834,2.8715497 40.170325 0 0 0.240382,-0.0448 1.3909834,2.8715497 40.170325 0 0 0.257934,-0.084 1.3909834,2.8715497 40.170325 0 0 0.269387,-0.12658 1.3909834,2.8715497 40.170325 0 0 -0.09632,-0.21848 1.4394658,2.7748335 37.680074 0 1 -0.05436,0.0272 1.4394658,2.7748335 37.680074 0 1 -0.129116,0.056 1.4394658,2.7748335 37.680074 0 1 -0.126211,0.0469 1.4394658,2.7748335 37.680074 0 1 -0.125318,0.0406 1.4394658,2.7748335 37.680074 0 1 -0.123741,0.0284 1.4394658,2.7748335 37.680074 0 1 -0.120152,0.0224 1.4394658,2.7748335 37.680074 0 1 -0.114127,0.007 1.4394658,2.7748335 37.680074 0 1 -0.111414,-0.002 1.4394658,2.7748335 37.680074 0 1 -0.103306,-0.01 1.4394658,2.7748335 37.680074 0 1 -0.09814,-0.0196 1.4394658,2.7748335 37.680074 0 1 -0.09571,-0.0286 1.4394658,2.7748335 37.680074 0 1 -0.08856,-0.0408 1.4394658,2.7748335 37.680074 0 1 -0.079,-0.0521 1.4394658,2.7748335 37.680074 0 1 -0.07097,-0.0612 1.4394658,2.7748335 37.680074 0 1 -0.06488,-0.0669 1.4394658,2.7748335 37.680074 0 1 -0.03608,-0.0461 1.3909834,2.8715497 40.170325 0 0 -0.05442,0.0272 z" />
          <g
             id="g2216"
             transform="matrix(-0.96099155,-0.23946013,0.12589603,1.6198341,77.301822,-18.200573)"
             style="fill:url(#linearGradient3194);fill-opacity:1"
             inkscape:transform-center-x="0.20361783"
             inkscape:transform-center-y="0.80166044">
            <g
               id="g2214"
               style="fill:url(#linearGradient3192);fill-opacity:1"
               transform="matrix(0.90639369,0.33084645,-0.38547074,0.59010074,40.111185,24.114512)">
              <path
                 id="path2210"
                 style="fill:url(#linearGradient3188);fill-opacity:1;stroke-width:23.9397"
                 d="m 70.862387,85.515796 a 2.7181205,4.2934904 51.052394 0 1 0.03848,0.07066 2.7181205,4.2934904 51.052394 0 1 0.05288,0.119651 2.7181205,4.2934904 51.052394 0 1 0.04629,0.125952 2.7181205,4.2934904 51.052394 0 1 0.03788,0.128576 2.7181205,4.2934904 51.052394 0 1 0.02841,0.135746 2.7181205,4.2934904 51.052394 0 1 0.0228,0.137485 2.7181205,4.2934904 51.052394 0 1 0.01327,0.144497 2.7181205,4.2934904 51.052394 0 1 0.002,0.147991 2.7181205,4.2934904 51.052394 0 1 -0.0055,0.146099 2.7181205,4.2934904 51.052394 0 1 -0.01205,0.152429 2.7181205,4.2934904 51.052394 0 1 -0.0205,0.155064 2.7181205,4.2934904 51.052394 0 1 -0.02896,0.15767 2.7181205,4.2934904 51.052394 0 1 -0.03739,0.160331 2.7181205,4.2934904 51.052394 0 1 -0.04761,0.15941 2.7181205,4.2934904 51.052394 0 1 -0.05429,0.165593 2.7181205,4.2934904 51.052394 0 1 -0.06347,0.160241 2.7181205,4.2934904 51.052394 0 1 -0.06909,0.161988 2.7181205,4.2934904 51.052394 0 1 -0.07755,0.164599 2.7181205,4.2934904 51.052394 0 1 -0.08778,0.163656 2.7181205,4.2934904 51.052394 0 1 -0.09235,0.160979 2.7181205,4.2934904 51.052394 0 1 -0.09799,0.162733 2.7181205,4.2934904 51.052394 0 1 -0.109999,0.158206 2.7181205,4.2934904 51.052394 0 1 -0.112809,0.159095 2.7181205,4.2934904 51.052394 0 1 -0.119175,0.152824 2.7181205,4.2934904 51.052394 0 1 -0.127614,0.155473 2.7181205,4.2934904 51.052394 0 1 -0.131184,0.148298 2.7181205,4.2934904 51.052394 0 1 -0.136817,0.150049 2.7181205,4.2934904 51.052394 0 1 -0.143172,0.143795 2.7181205,4.2934904 51.052394 0 1 -0.149537,0.137534 2.7181205,4.2934904 51.052394 0 1 -0.151311,0.133963 2.7181205,4.2934904 51.052394 0 1 -0.158679,0.132201 2.7181205,4.2934904 51.052394 0 1 -0.492131,0.36427 2.7181205,4.2934904 51.052394 0 1 -0.514205,0.31332 2.7181205,4.2934904 51.052394 0 1 -0.532415,0.257053 2.7181205,4.2934904 51.052394 0 1 -0.09391,0.03354 4.1830297,5.9165009 33.073845 0 0 -0.257808,-0.315945 4.1830297,5.9165009 33.073845 0 0 -3.511213,-0.770405 2.7181205,4.2934904 51.052394 0 1 -0.0167,-0.118667 4.1830297,5.9165009 33.073845 0 1 1.361992,-2.291646 4.1830297,5.9165009 33.073845 0 1 5.849336,-2.024055 z" />
              <path
                 id="path2212"
                 style="fill:url(#linearGradient3190);fill-opacity:1;stroke-width:26.6383"
                 d="m 68.174925,90.669247 a 4.7161131,6.4975121 41.164595 0 1 -0.247218,0.06271 4.7161131,6.4975121 41.164595 0 0 -0.351922,-5.131275 2.9786359,4.8510662 56.783742 0 0 0.109528,-0.03615 2.9786359,4.8510662 56.783742 0 0 0.62057,-0.275813 2.9786359,4.8510662 56.783742 0 0 0.598983,-0.335307 2.9786359,4.8510662 56.783742 0 0 0.572881,-0.389173 2.9786359,4.8510662 56.783742 0 0 0.184628,-0.14111 2.9786359,4.8510662 56.783742 0 0 0.176006,-0.142927 2.9786359,4.8510662 56.783742 0 0 0.173919,-0.146702 2.9786359,4.8510662 56.783742 0 0 0.166443,-0.153298 2.9786359,4.8510662 56.783742 0 0 0.158982,-0.159882 2.9786359,4.8510662 56.783742 0 0 0.152409,-0.157991 2.9786359,4.8510662 56.783742 0 0 0.148195,-0.16557 2.9786359,4.8510662 56.783742 0 0 0.138355,-0.162711 2.9786359,4.8510662 56.783742 0 0 0.130878,-0.169315 2.9786359,4.8510662 56.783742 0 0 0.127599,-0.168353 2.9786359,4.8510662 56.783742 0 0 0.11353,-0.173094 2.9786359,4.8510662 56.783742 0 0 0.106998,-0.171144 2.9786359,4.8510662 56.783742 0 0 0.101526,-0.174127 2.9786359,4.8510662 56.783742 0 0 0.08966,-0.174901 2.9786359,4.8510662 56.783742 0 0 0.07984,-0.172016 2.9786359,4.8510662 56.783742 0 0 0.07321,-0.170228 2.9786359,4.8510662 56.783742 0 0 0.0625,-0.175767 2.9786359,4.8510662 56.783742 0 0 0.0547,-0.169214 2.9786359,4.8510662 56.783742 0 0 0.04275,-0.170188 2.9786359,4.8510662 56.783742 0 0 0.03292,-0.167265 2.9786359,4.8510662 56.783742 0 0 0.02309,-0.1644 2.9786359,4.8510662 56.783742 0 0 0.01325,-0.161493 2.9786359,4.8510662 56.783742 0 0 0.0054,-0.155108 2.9786359,4.8510662 56.783742 0 0 -0.0031,-0.156771 2.9786359,4.8510662 56.783742 0 0 -0.0164,-0.153098 2.9786359,4.8510662 56.783742 0 0 -0.02745,-0.14556 2.9786359,4.8510662 56.783742 0 0 -0.03387,-0.143471 2.9786359,4.8510662 56.783742 0 0 -0.04501,-0.136005 2.9786359,4.8510662 56.783742 0 0 -0.0549,-0.13331 2.9786359,4.8510662 56.783742 0 0 -0.06263,-0.126655 2.9786359,4.8510662 56.783742 0 0 -0.04523,-0.07446 4.7161131,6.4975121 41.164595 0 1 0.976485,0.646896 4.7161131,6.4975121 41.164595 0 1 -0.97296,8.051871 4.7161131,6.4975121 41.164595 0 1 -3.374502,2.242226 z" />
            </g>
          </g>
          <g
             id="g2224"
             transform="matrix(-0.66305974,-0.22575133,-0.3039907,0.52151234,101.47104,88.159804)"
             style="fill:url(#linearGradient3202);fill-opacity:1">
            <g
               id="g2222"
               style="fill:url(#linearGradient3200);fill-opacity:1">
              <path
                 id="path2218"
                 style="fill:url(#linearGradient3196);fill-opacity:1;stroke-width:23.9397"
                 d="m 70.862387,85.515796 a 2.7181205,4.2934904 51.052394 0 1 0.03848,0.07066 2.7181205,4.2934904 51.052394 0 1 0.05288,0.119651 2.7181205,4.2934904 51.052394 0 1 0.04629,0.125952 2.7181205,4.2934904 51.052394 0 1 0.03788,0.128576 2.7181205,4.2934904 51.052394 0 1 0.02841,0.135746 2.7181205,4.2934904 51.052394 0 1 0.0228,0.137485 2.7181205,4.2934904 51.052394 0 1 0.01327,0.144497 2.7181205,4.2934904 51.052394 0 1 0.002,0.147991 2.7181205,4.2934904 51.052394 0 1 -0.0055,0.146099 2.7181205,4.2934904 51.052394 0 1 -0.01205,0.152429 2.7181205,4.2934904 51.052394 0 1 -0.0205,0.155064 2.7181205,4.2934904 51.052394 0 1 -0.02896,0.15767 2.7181205,4.2934904 51.052394 0 1 -0.03739,0.160331 2.7181205,4.2934904 51.052394 0 1 -0.04761,0.15941 2.7181205,4.2934904 51.052394 0 1 -0.05429,0.165593 2.7181205,4.2934904 51.052394 0 1 -0.06347,0.160241 2.7181205,4.2934904 51.052394 0 1 -0.06909,0.161988 2.7181205,4.2934904 51.052394 0 1 -0.07755,0.164599 2.7181205,4.2934904 51.052394 0 1 -0.08778,0.163656 2.7181205,4.2934904 51.052394 0 1 -0.09235,0.160979 2.7181205,4.2934904 51.052394 0 1 -0.09799,0.162733 2.7181205,4.2934904 51.052394 0 1 -0.109999,0.158206 2.7181205,4.2934904 51.052394 0 1 -0.112809,0.159095 2.7181205,4.2934904 51.052394 0 1 -0.119175,0.152824 2.7181205,4.2934904 51.052394 0 1 -0.127614,0.155473 2.7181205,4.2934904 51.052394 0 1 -0.131184,0.148298 2.7181205,4.2934904 51.052394 0 1 -0.136817,0.150049 2.7181205,4.2934904 51.052394 0 1 -0.143172,0.143795 2.7181205,4.2934904 51.052394 0 1 -0.149537,0.137534 2.7181205,4.2934904 51.052394 0 1 -0.151311,0.133963 2.7181205,4.2934904 51.052394 0 1 -0.158679,0.132201 2.7181205,4.2934904 51.052394 0 1 -0.492131,0.36427 2.7181205,4.2934904 51.052394 0 1 -0.514205,0.31332 2.7181205,4.2934904 51.052394 0 1 -0.532415,0.257053 2.7181205,4.2934904 51.052394 0 1 -0.09391,0.03354 4.1830297,5.9165009 33.073845 0 0 -0.257808,-0.315945 4.1830297,5.9165009 33.073845 0 0 -3.511213,-0.770405 2.7181205,4.2934904 51.052394 0 1 -0.0167,-0.118667 4.1830297,5.9165009 33.073845 0 1 1.361992,-2.291646 4.1830297,5.9165009 33.073845 0 1 5.849336,-2.024055 z" />
              <path
                 id="path2220"
                 style="fill:url(#linearGradient3198);fill-opacity:1;stroke-width:26.6383"
                 d="m 68.174925,90.669247 a 4.7161131,6.4975121 41.164595 0 1 -0.247218,0.06271 4.7161131,6.4975121 41.164595 0 0 -0.351922,-5.131275 2.9786359,4.8510662 56.783742 0 0 0.109528,-0.03615 2.9786359,4.8510662 56.783742 0 0 0.62057,-0.275813 2.9786359,4.8510662 56.783742 0 0 0.598983,-0.335307 2.9786359,4.8510662 56.783742 0 0 0.572881,-0.389173 2.9786359,4.8510662 56.783742 0 0 0.184628,-0.14111 2.9786359,4.8510662 56.783742 0 0 0.176006,-0.142927 2.9786359,4.8510662 56.783742 0 0 0.173919,-0.146702 2.9786359,4.8510662 56.783742 0 0 0.166443,-0.153298 2.9786359,4.8510662 56.783742 0 0 0.158982,-0.159882 2.9786359,4.8510662 56.783742 0 0 0.152409,-0.157991 2.9786359,4.8510662 56.783742 0 0 0.148195,-0.16557 2.9786359,4.8510662 56.783742 0 0 0.138355,-0.162711 2.9786359,4.8510662 56.783742 0 0 0.130878,-0.169315 2.9786359,4.8510662 56.783742 0 0 0.127599,-0.168353 2.9786359,4.8510662 56.783742 0 0 0.11353,-0.173094 2.9786359,4.8510662 56.783742 0 0 0.106998,-0.171144 2.9786359,4.8510662 56.783742 0 0 0.101526,-0.174127 2.9786359,4.8510662 56.783742 0 0 0.08966,-0.174901 2.9786359,4.8510662 56.783742 0 0 0.07984,-0.172016 2.9786359,4.8510662 56.783742 0 0 0.07321,-0.170228 2.9786359,4.8510662 56.783742 0 0 0.0625,-0.175767 2.9786359,4.8510662 56.783742 0 0 0.0547,-0.169214 2.9786359,4.8510662 56.783742 0 0 0.04275,-0.170188 2.9786359,4.8510662 56.783742 0 0 0.03292,-0.167265 2.9786359,4.8510662 56.783742 0 0 0.02309,-0.1644 2.9786359,4.8510662 56.783742 0 0 0.01325,-0.161493 2.9786359,4.8510662 56.783742 0 0 0.0054,-0.155108 2.9786359,4.8510662 56.783742 0 0 -0.0031,-0.156771 2.9786359,4.8510662 56.783742 0 0 -0.0164,-0.153098 2.9786359,4.8510662 56.783742 0 0 -0.02745,-0.14556 2.9786359,4.8510662 56.783742 0 0 -0.03387,-0.143471 2.9786359,4.8510662 56.783742 0 0 -0.04501,-0.136005 2.9786359,4.8510662 56.783742 0 0 -0.0549,-0.13331 2.9786359,4.8510662 56.783742 0 0 -0.06263,-0.126655 2.9786359,4.8510662 56.783742 0 0 -0.04523,-0.07446 4.7161131,6.4975121 41.164595 0 1 0.976485,0.646896 4.7161131,6.4975121 41.164595 0 1 -0.97296,8.051871 4.7161131,6.4975121 41.164595 0 1 -3.374502,2.242226 z" />
            </g>
          </g>
          <g
             id="g2304"
             transform="matrix(-1.2360597,-0.08104857,-0.13465045,1.2171547,122.16308,19.80405)"
             style="fill:url(#linearGradient2270);fill-opacity:1">
            <g
               id="g2302"
               style="fill:url(#linearGradient3206);fill-opacity:1">
              <path
                 id="path2298"
                 style="fill:url(#linearGradient3204);fill-opacity:1;stroke-width:23.9397"
                 d="m 70.862387,85.515796 a 2.7181205,4.2934904 51.052394 0 1 0.03848,0.07066 2.7181205,4.2934904 51.052394 0 1 0.05288,0.119651 2.7181205,4.2934904 51.052394 0 1 0.04629,0.125952 2.7181205,4.2934904 51.052394 0 1 0.03788,0.128576 2.7181205,4.2934904 51.052394 0 1 0.02841,0.135746 2.7181205,4.2934904 51.052394 0 1 0.0228,0.137485 2.7181205,4.2934904 51.052394 0 1 0.01327,0.144497 2.7181205,4.2934904 51.052394 0 1 0.002,0.147991 2.7181205,4.2934904 51.052394 0 1 -0.0055,0.146099 2.7181205,4.2934904 51.052394 0 1 -0.01205,0.152429 2.7181205,4.2934904 51.052394 0 1 -0.0205,0.155064 2.7181205,4.2934904 51.052394 0 1 -0.02896,0.15767 2.7181205,4.2934904 51.052394 0 1 -0.03739,0.160331 2.7181205,4.2934904 51.052394 0 1 -0.04761,0.15941 2.7181205,4.2934904 51.052394 0 1 -0.05429,0.165593 2.7181205,4.2934904 51.052394 0 1 -0.06347,0.160241 2.7181205,4.2934904 51.052394 0 1 -0.06909,0.161988 2.7181205,4.2934904 51.052394 0 1 -0.07755,0.164599 2.7181205,4.2934904 51.052394 0 1 -0.08778,0.163656 2.7181205,4.2934904 51.052394 0 1 -0.09235,0.160979 2.7181205,4.2934904 51.052394 0 1 -0.09799,0.162733 2.7181205,4.2934904 51.052394 0 1 -0.109999,0.158206 2.7181205,4.2934904 51.052394 0 1 -0.112809,0.159095 2.7181205,4.2934904 51.052394 0 1 -0.119175,0.152824 2.7181205,4.2934904 51.052394 0 1 -0.127614,0.155473 2.7181205,4.2934904 51.052394 0 1 -0.131184,0.148298 2.7181205,4.2934904 51.052394 0 1 -0.136817,0.150049 2.7181205,4.2934904 51.052394 0 1 -0.143172,0.143795 2.7181205,4.2934904 51.052394 0 1 -0.149537,0.137534 2.7181205,4.2934904 51.052394 0 1 -0.151311,0.133963 2.7181205,4.2934904 51.052394 0 1 -0.158679,0.132201 2.7181205,4.2934904 51.052394 0 1 -0.492131,0.36427 2.7181205,4.2934904 51.052394 0 1 -0.514205,0.31332 2.7181205,4.2934904 51.052394 0 1 -0.532415,0.257053 2.7181205,4.2934904 51.052394 0 1 -0.09391,0.03354 4.1830297,5.9165009 33.073845 0 0 -0.257808,-0.315945 4.1830297,5.9165009 33.073845 0 0 -3.511213,-0.770405 2.7181205,4.2934904 51.052394 0 1 -0.0167,-0.118667 4.1830297,5.9165009 33.073845 0 1 1.361992,-2.291646 4.1830297,5.9165009 33.073845 0 1 5.849336,-2.024055 z" />
              <path
                 id="path2300"
                 style="fill:url(#linearGradient2266);fill-opacity:1;stroke-width:26.6383"
                 d="m 68.174925,90.669247 a 4.7161131,6.4975121 41.164595 0 1 -0.247218,0.06271 4.7161131,6.4975121 41.164595 0 0 -0.351922,-5.131275 2.9786359,4.8510662 56.783742 0 0 0.109528,-0.03615 2.9786359,4.8510662 56.783742 0 0 0.62057,-0.275813 2.9786359,4.8510662 56.783742 0 0 0.598983,-0.335307 2.9786359,4.8510662 56.783742 0 0 0.572881,-0.389173 2.9786359,4.8510662 56.783742 0 0 0.184628,-0.14111 2.9786359,4.8510662 56.783742 0 0 0.176006,-0.142927 2.9786359,4.8510662 56.783742 0 0 0.173919,-0.146702 2.9786359,4.8510662 56.783742 0 0 0.166443,-0.153298 2.9786359,4.8510662 56.783742 0 0 0.158982,-0.159882 2.9786359,4.8510662 56.783742 0 0 0.152409,-0.157991 2.9786359,4.8510662 56.783742 0 0 0.148195,-0.16557 2.9786359,4.8510662 56.783742 0 0 0.138355,-0.162711 2.9786359,4.8510662 56.783742 0 0 0.130878,-0.169315 2.9786359,4.8510662 56.783742 0 0 0.127599,-0.168353 2.9786359,4.8510662 56.783742 0 0 0.11353,-0.173094 2.9786359,4.8510662 56.783742 0 0 0.106998,-0.171144 2.9786359,4.8510662 56.783742 0 0 0.101526,-0.174127 2.9786359,4.8510662 56.783742 0 0 0.08966,-0.174901 2.9786359,4.8510662 56.783742 0 0 0.07984,-0.172016 2.9786359,4.8510662 56.783742 0 0 0.07321,-0.170228 2.9786359,4.8510662 56.783742 0 0 0.0625,-0.175767 2.9786359,4.8510662 56.783742 0 0 0.0547,-0.169214 2.9786359,4.8510662 56.783742 0 0 0.04275,-0.170188 2.9786359,4.8510662 56.783742 0 0 0.03292,-0.167265 2.9786359,4.8510662 56.783742 0 0 0.02309,-0.1644 2.9786359,4.8510662 56.783742 0 0 0.01325,-0.161493 2.9786359,4.8510662 56.783742 0 0 0.0054,-0.155108 2.9786359,4.8510662 56.783742 0 0 -0.0031,-0.156771 2.9786359,4.8510662 56.783742 0 0 -0.0164,-0.153098 2.9786359,4.8510662 56.783742 0 0 -0.02745,-0.14556 2.9786359,4.8510662 56.783742 0 0 -0.03387,-0.143471 2.9786359,4.8510662 56.783742 0 0 -0.04501,-0.136005 2.9786359,4.8510662 56.783742 0 0 -0.0549,-0.13331 2.9786359,4.8510662 56.783742 0 0 -0.06263,-0.126655 2.9786359,4.8510662 56.783742 0 0 -0.04523,-0.07446 4.7161131,6.4975121 41.164595 0 1 0.976485,0.646896 4.7161131,6.4975121 41.164595 0 1 -0.97296,8.051871 4.7161131,6.4975121 41.164595 0 1 -3.374502,2.242226 z" />
            </g>
          </g>
          <path
             id="path2176"
             style="fill:url(#linearGradient2276);fill-opacity:1;stroke-width:48.3771"
             d="m 37.080533,118.74204 c 0.06763,0.03 0.134682,0.0606 0.201133,0.0919 0.105821,0.0517 0.210021,0.1052 0.312514,0.16049 0.104314,0.0557 0.206856,0.11327 0.307535,0.1726 0.09936,0.0583 0.196896,0.11822 0.292522,0.17985 0.09615,0.0631 0.190304,0.12796 0.282359,0.19439 0.09284,0.0648 0.183646,0.13124 0.272318,0.1992 0.08953,0.0696 0.176807,0.14082 0.261772,0.21353 0.08288,0.0729 0.163448,0.14742 0.241603,0.22323 0.07608,0.0731 0.149923,0.14761 0.221427,0.22327 0.07468,0.0772 0.146902,0.15567 0.216604,0.23538 0.06973,0.0797 0.136916,0.16064 0.201506,0.2427 0.06477,0.0822 0.126891,0.16555 0.186339,0.24991 0.05986,0.0848 0.116985,0.17052 0.171341,0.25724 0.05155,0.0858 0.100409,0.17241 0.146506,0.25984 0.04999,0.0898 0.09706,0.18038 0.141136,0.27178 0.03999,0.0884 0.07718,0.17756 0.111582,0.26727 0.03672,0.0901 0.07056,0.18084 0.101534,0.27209 0.03178,0.0927 0.0606,0.18576 0.08638,0.27936 0.02351,0.0936 0.04403,0.18762 0.06148,0.2819 0.01853,0.0929 0.03413,0.18618 0.04675,0.27963 0.01528,0.0946 0.02752,0.18948 0.03667,0.28449 0.0037,0.0941 0.0043,0.18824 0.002,0.28231 0.0021,0.095 0.0011,0.18989 -0.0029,0.28474 -0.0063,0.0927 -0.0155,0.18537 -0.02763,0.27774 -0.01114,0.0953 -0.02536,0.19034 -0.04266,0.28506 -0.01784,0.0922 -0.03861,0.18411 -0.06229,0.27557 -0.02108,0.0939 -0.04522,0.18741 -0.07239,0.28042 -0.02937,0.0918 -0.06169,0.1829 -0.09693,0.27343 -0.03765,0.0896 -0.07816,0.17838 -0.121518,0.26642 -0.04097,0.088 -0.08474,0.1753 -0.131276,0.26172 -0.04748,0.0882 -0.09781,0.17556 -0.150957,0.26193 -0.156239,0.25722 -0.337172,0.50555 -0.54141,0.7431 -0.202473,0.23666 -0.427529,0.46209 -0.673467,0.67457 -0.248653,0.21307 -0.310113,0.21949 -0.597581,0.40361 -0.05316,0.0296 -0.291362,0.10156 -0.345509,0.13018 -0.361839,-0.13807 -0.727356,-0.0284 -1.095308,-0.14194 -3.369441,0.40673 -6.772081,-0.21696 -9.28252,0.11636 -0.07763,-0.0565 -0.153714,-0.11429 -0.228235,-0.17311 -0.582218,-1.36987 -0.772867,-2.73771 -0.557408,-3.99922 0.658477,-3.78446 4.828506,-5.98425 10.127834,-5.3427 z"
             sodipodi:nodetypes="ccccccccccscccccccccccccccccccsccccccccccc" />
          <path
             id="path2377"
             style="fill:url(#linearGradient2379);fill-opacity:1;stroke-width:30.1928"
             d="m 20.085252,98.335458 a 3.3362314,5.5640626 50.815056 0 0 0.09346,0.04525 3.3362314,5.5640626 50.815056 0 0 0.159302,0.06232 3.3362314,5.5640626 50.815056 0 0 0.168395,0.05466 3.3362314,5.5640626 50.815056 0 0 0.172615,0.04492 3.3362314,5.5640626 50.815056 0 0 0.183091,0.03385 3.3362314,5.5640626 50.815056 0 0 0.185878,0.02733 3.3362314,5.5640626 50.815056 0 0 0.196145,0.0163 3.3362314,5.5640626 50.815056 0 0 0.20175,0.0032 3.3362314,5.5640626 50.815056 0 0 0.199749,-0.0051 3.3362314,5.5640626 50.815056 0 0 0.20883,-0.01361 3.3362314,5.5640626 50.815056 0 0 0.213068,-0.02301 3.3362314,5.5640626 50.815056 0 0 0.217243,-0.03292 3.3362314,5.5640626 50.815056 0 0 0.221506,-0.04266 3.3362314,5.5640626 50.815056 0 0 0.221001,-0.05464 3.3362314,5.5640626 50.815056 0 0 0.229938,-0.06241 3.3362314,5.5640626 50.815056 0 0 0.22331,-0.07309 3.3362314,5.5640626 50.815056 0 0 0.226112,-0.07964 3.3362314,5.5640626 50.815056 0 0 0.230296,-0.08947 3.3362314,5.5640626 50.815056 0 0 0.229773,-0.101451 3.3362314,5.5640626 50.815056 0 0 0.226449,-0.106792 3.3362314,5.5640626 50.815056 0 0 0.229272,-0.11331 3.3362314,5.5640626 50.815056 0 0 0.223989,-0.127338 3.3362314,5.5640626 50.815056 0 0 0.225405,-0.130607 3.3362314,5.5640626 50.815056 0 0 0.217316,-0.138058 3.3362314,5.5640626 50.815056 0 0 0.221551,-0.147888 3.3362314,5.5640626 50.815056 0 0 0.212037,-0.152092 3.3362314,5.5640626 50.815056 0 0 0.21484,-0.158641 3.3362314,5.5640626 50.815056 0 0 0.206766,-0.166092 3.3362314,5.5640626 50.815056 0 0 0.198695,-0.173569 3.3362314,5.5640626 50.815056 0 0 0.193964,-0.175628 3.3362314,5.5640626 50.815056 0 0 0.192104,-0.184227 3.3362314,5.5640626 50.815056 0 0 0.53341,-0.571612 3.3362314,5.5640626 50.815056 0 0 0.465537,-0.597631 3.3362314,5.5640626 50.815056 0 0 0.390121,-0.619166 3.3362314,5.5640626 50.815056 0 0 0.05273,-0.109278 4.9375915,7.9727783 66.212365 0 1 -0.411936,-0.302262 4.9375915,7.9727783 66.212365 0 1 -0.790965,-4.097046 3.3362314,5.5640626 50.815056 0 0 -0.160652,-0.0201 4.9375915,7.9727783 66.212365 0 0 -3.227286,1.574824 4.9375915,7.9727783 66.212365 0 0 -3.194591,6.806869 z" />
        </g>
        <g
           id="g2230"
           transform="matrix(1,0,0,0.97035467,8.8807366,4.5052984)">
          <path
             id="path2228"
             style="fill:#9c9dff;fill-opacity:0.678431;stroke-width:47.1242"
             d="m 40.93794,117.40805 a 7.4890944,12.8049 5.6615648 0 0 -7.584756,8.23353 7.4890944,12.8049 5.6615648 0 0 -0.549844,2.48338 h 8.873558 a 5.0954277,8.8745875 19.548872 0 0 0.138639,-0.29612 5.0954277,8.8745875 19.548872 0 0 0.166905,-0.38159 5.0954277,8.8745875 19.548872 0 0 0.160848,-0.38765 5.0954277,8.8745875 19.548872 0 0 0.147388,-0.3964 5.0954277,8.8745875 19.548872 0 0 0.131908,-0.40582 5.0954277,8.8745875 19.548872 0 0 0.124506,-0.39775 5.0954277,8.8745875 19.548872 0 0 0.113738,-0.41053 5.0954277,8.8745875 19.548872 0 0 0.101623,-0.39977 5.0954277,8.8745875 19.548872 0 0 0.08749,-0.40784 5.0954277,8.8745875 19.548872 0 0 0.08278,-0.40447 5.0954277,8.8745875 19.548872 0 0 0.06057,-0.4065 5.0954277,8.8745875 19.548872 0 0 0.05182,-0.39842 5.0954277,8.8745875 19.548872 0 0 0.04307,-0.40111 5.0954277,8.8745875 19.548872 0 0 0.02558,-0.39572 5.0954277,8.8745875 19.548872 0 0 0.01346,-0.38563 5.0954277,8.8745875 19.548872 0 0 0.0054,-0.37756 5.0954277,8.8745875 19.548872 0 0 -0.01413,-0.38226 5.0954277,8.8745875 19.548872 0 0 -0.02086,-0.36545 5.0954277,8.8745875 19.548872 0 0 -0.03769,-0.36005 5.0954277,8.8745875 19.548872 0 0 -0.05115,-0.34929 5.0954277,8.8745875 19.548872 0 0 -0.06259,-0.33785 5.0954277,8.8745875 19.548872 0 0 -0.07538,-0.32708 5.0954277,8.8745875 19.548872 0 0 -0.08211,-0.30958 5.0954277,8.8745875 19.548872 0 0 -0.09557,-0.30756 5.0954277,8.8745875 19.548872 0 0 -0.112392,-0.29343 5.0954277,8.8745875 19.548872 0 0 -0.123159,-0.27257 5.0954277,8.8745875 19.548872 0 0 -0.131909,-0.26449 5.0954277,8.8745875 19.548872 0 0 -0.142677,-0.24363 5.0954277,8.8745875 19.548872 0 0 -0.155464,-0.23219 5.0954277,8.8745875 19.548872 0 0 -0.161521,-0.21468 5.0954277,8.8745875 19.548872 0 0 -0.10768,-0.12249 l -6.73e-4,6.7e-4 a 7.4890944,12.8049 5.6615648 0 0 -0.819719,-0.0821 z" />
        </g>
      </g>
    </g>
  </g>
</svg>
